<svg width="203" height="90" viewBox="0 0 203 90" fill="none" xmlns="http://www.w3.org/2000/svg">
<g clip-path="url(#clip0_31_3465)">
<path d="M51.0846 56.8698L61.3496 40.8971H52.3006C52.2239 40.437 52.1911 39.9331 52.1911 39.3744C52.1911 38.8375 52.2239 38.3446 52.3006 37.8954H66.9477L67.134 38.3884L56.7923 54.394H66.4876C66.5643 54.8979 66.5972 55.4238 66.5972 55.9496C66.5972 56.4535 66.5643 56.9356 66.4876 57.3957H51.2708L51.0846 56.8698Z" fill="#E6E6E6"/>
<path d="M80.7076 44.5454C80.7076 43.0446 80.3241 42.0148 79.5682 41.4232C78.8123 40.8426 77.7058 40.5468 76.2598 40.5468C75.3724 40.5468 74.5398 40.6125 73.7729 40.7549C72.9951 40.8973 72.2501 41.0726 71.5052 41.3027C71.0232 40.4701 70.7821 39.4622 70.7821 38.301C71.6476 38.0271 72.5898 37.808 73.6305 37.6546C74.6712 37.5012 75.6682 37.4245 76.6322 37.4245C79.1629 37.4245 81.091 38.0052 82.4166 39.1555C83.7312 40.3058 84.3995 42.1572 84.3995 44.6878V56.892C83.5121 57.0892 82.4385 57.3083 81.1677 57.5164C79.8969 57.7355 78.6042 57.8341 77.2895 57.8341C76.0516 57.8341 74.9232 57.7246 73.9263 57.4945C72.9294 57.2644 72.0749 56.9029 71.3737 56.388C70.6726 55.8841 70.1358 55.2377 69.7524 54.4489C69.3689 53.6602 69.1827 52.7071 69.1827 51.6006C69.1827 50.516 69.4018 49.552 69.851 48.7303C70.2892 47.9087 70.8917 47.2185 71.6586 46.6817C72.4145 46.1339 73.2909 45.7286 74.2878 45.4657C75.2738 45.2027 76.3145 45.0603 77.4101 45.0603C78.2207 45.0603 78.889 45.0822 79.4039 45.1151C79.9188 45.148 80.357 45.2027 80.7185 45.2466V44.5454H80.7076ZM80.7076 48.2373C80.3241 48.1826 79.8421 48.1387 79.2615 48.084C78.6809 48.0292 78.1879 48.0073 77.7825 48.0073C76.205 48.0073 75.0109 48.3031 74.1892 48.8837C73.3676 49.4643 72.9513 50.3517 72.9513 51.5458C72.9513 52.3017 73.0937 52.9043 73.3676 53.3315C73.6415 53.7588 73.992 54.0874 74.4083 54.3175C74.8246 54.5475 75.2847 54.69 75.7996 54.7338C76.3036 54.7886 76.7856 54.8105 77.2457 54.8105C77.8263 54.8105 78.4289 54.7776 79.0533 54.7119C79.6778 54.6461 80.2255 54.5585 80.7076 54.427V48.2373Z" fill="#E6E6E6"/>
<path d="M88.5076 37.8962C88.7596 37.8414 89.0225 37.8086 89.2854 37.7867C89.5483 37.7648 89.8222 37.7538 90.1071 37.7538C90.359 37.7538 90.622 37.7648 90.9068 37.7867C91.1807 37.8086 91.4545 37.8524 91.7065 37.8962C91.7284 37.951 91.7613 38.1044 91.8051 38.3673C91.838 38.6302 91.8818 38.9151 91.9147 39.2218C91.9475 39.5286 91.9914 39.8134 92.0242 40.0982C92.0571 40.3831 92.079 40.5583 92.079 40.635C92.331 40.2297 92.6377 39.8353 92.9883 39.4519C93.3388 39.0684 93.7661 38.7288 94.2591 38.4221C94.7521 38.1153 95.3108 37.8743 95.9352 37.699C96.5597 37.5237 97.2499 37.4361 98.0058 37.4361C99.1451 37.4361 100.208 37.6223 101.183 38.0058C102.158 38.3892 102.99 38.9698 103.692 39.7696C104.393 40.5693 104.929 41.5881 105.324 42.8151C105.718 44.0421 105.915 45.4991 105.915 47.1753C105.915 50.5276 105.006 53.1459 103.199 55.0302C101.38 56.9145 98.8165 57.8676 95.497 57.8676C94.9383 57.8676 94.3686 57.8347 93.788 57.758C93.2074 57.6814 92.6925 57.5828 92.2652 57.4513V66.3908C91.9585 66.4455 91.6408 66.4784 91.2902 66.5003C90.9506 66.5222 90.6329 66.5332 90.359 66.5332C90.0851 66.5332 89.7675 66.5222 89.4278 66.5003C89.0882 66.4784 88.7705 66.4346 88.4966 66.3908V37.8962H88.5076ZM92.2762 54.2086C92.7582 54.3838 93.2512 54.5153 93.7551 54.592C94.2591 54.6687 94.9164 54.7015 95.738 54.7015C96.6473 54.7015 97.4909 54.5591 98.2468 54.2633C99.0027 53.9675 99.66 53.5184 100.208 52.9158C100.756 52.3023 101.183 51.5355 101.5 50.6152C101.818 49.695 101.972 48.5885 101.972 47.3287C101.972 45.302 101.599 43.6915 100.854 42.4974C100.109 41.3033 98.8822 40.7117 97.1841 40.7117C96.5487 40.7117 95.9462 40.8213 95.3546 41.0513C94.774 41.2814 94.2481 41.621 93.799 42.0811C93.3388 42.5412 92.9773 43.1109 92.6925 43.812C92.4076 44.5132 92.2762 45.3348 92.2762 46.2989V54.2086Z" fill="#E6E6E6"/>
<path d="M110.604 40.8533H108.128C108.074 40.6452 108.041 40.4151 108.019 40.1522C107.997 39.8892 107.986 39.6263 107.986 39.3744C107.986 39.1224 107.997 38.8595 108.019 38.5965C108.041 38.3336 108.085 38.0926 108.128 37.8954H114.296V57.4066C114.022 57.4614 113.705 57.4943 113.365 57.5162C113.025 57.5381 112.708 57.5491 112.434 57.5491C112.182 57.5491 111.886 57.5381 111.535 57.5162C111.196 57.4943 110.878 57.4505 110.604 57.4066V40.8533Z" fill="#E6E6E6"/>
<path d="M122.392 48.5772C122.447 50.7025 122.995 52.2691 124.046 53.2551C125.098 54.2411 126.654 54.7341 128.702 54.7341C130.499 54.7341 132.219 54.4164 133.84 53.781C134.048 54.1644 134.213 54.6245 134.333 55.1723C134.465 55.72 134.53 56.2568 134.563 56.7936C133.731 57.1442 132.81 57.4181 131.803 57.5934C130.806 57.7687 129.688 57.8563 128.472 57.8563C126.697 57.8563 125.175 57.6043 123.904 57.1113C122.633 56.6184 121.592 55.9172 120.771 55.0189C119.949 54.1206 119.346 53.0579 118.963 51.82C118.58 50.593 118.393 49.2455 118.393 47.7665C118.393 46.3204 118.58 44.973 118.941 43.7131C119.303 42.4533 119.872 41.3687 120.628 40.4375C121.384 39.5173 122.348 38.7723 123.499 38.2355C124.649 37.6877 126.018 37.4139 127.585 37.4139C128.932 37.4139 130.105 37.6439 131.123 38.104C132.142 38.5642 132.986 39.1886 133.676 39.9883C134.355 40.7881 134.881 41.7412 135.232 42.8367C135.582 43.9432 135.768 45.1373 135.768 46.43C135.768 46.7806 135.757 47.164 135.725 47.5474C135.703 47.9418 135.67 48.2814 135.648 48.5553H122.392V48.5772ZM132.055 45.7617C132.055 45.0496 131.956 44.3704 131.77 43.7241C131.583 43.0777 131.299 42.519 130.937 42.037C130.565 41.5549 130.105 41.1715 129.535 40.8757C128.965 40.5799 128.286 40.4375 127.497 40.4375C125.952 40.4375 124.769 40.9086 123.937 41.8398C123.115 42.7819 122.611 44.0856 122.436 45.7617H132.055Z" fill="#E6E6E6"/>
<path d="M139.931 37.8954C140.205 37.8406 140.479 37.8078 140.731 37.7858C140.983 37.7639 141.246 37.753 141.531 37.753C141.805 37.753 142.09 37.7639 142.363 37.7858C142.637 37.8078 142.9 37.8516 143.119 37.8954C143.196 38.2788 143.273 38.7718 143.349 39.3963C143.426 40.0207 143.459 40.5466 143.459 40.9738C143.996 40.1084 144.697 39.3634 145.573 38.728C146.45 38.0926 147.567 37.7749 148.937 37.7749C149.145 37.7749 149.353 37.7858 149.561 37.7968C149.78 37.8078 149.955 37.8297 150.109 37.8516C150.164 38.0816 150.196 38.3227 150.218 38.5746C150.24 38.8266 150.251 39.0895 150.251 39.3744C150.251 39.6811 150.229 39.9988 150.196 40.3275C150.164 40.6561 150.109 40.9738 150.065 41.2806C149.857 41.2258 149.649 41.2039 149.441 41.2039C149.221 41.2039 149.057 41.2039 148.926 41.2039C148.246 41.2039 147.589 41.3025 146.965 41.4887C146.34 41.675 145.782 42.0146 145.289 42.4966C144.796 42.9786 144.401 43.6359 144.105 44.4795C143.81 45.3121 143.667 46.3967 143.667 47.7113V57.4067C143.393 57.4614 143.076 57.4943 142.736 57.5162C142.396 57.5381 142.079 57.5491 141.805 57.5491C141.531 57.5491 141.213 57.5381 140.874 57.5162C140.534 57.4943 140.205 57.4505 139.899 57.4067V37.8954H139.931Z" fill="#E6E6E6"/>
<path d="M117.878 26.4148H114.197L116.805 23.8074C116.597 23.5226 116.367 23.2487 116.126 22.9967C115.874 22.7448 115.611 22.5147 115.315 22.3175L112.707 24.9248V21.2439C112.368 21.1891 112.017 21.1562 111.656 21.1562H111.645C111.283 21.1562 110.933 21.1891 110.593 21.2439V24.9248L107.986 22.3175C107.701 22.5257 107.427 22.7557 107.175 22.9967C106.923 23.2487 106.704 23.5116 106.496 23.8074L109.114 26.4148H105.433C105.433 26.4148 105.346 27.1049 105.346 27.4665C105.346 27.828 105.378 28.1785 105.433 28.5182H109.114L106.507 31.1255C106.912 31.6952 107.416 32.1991 107.997 32.6154L110.604 30.0081V33.689C110.944 33.7438 111.294 33.7767 111.656 33.7767H111.667C112.028 33.7767 112.379 33.7438 112.718 33.689V30.0081L115.326 32.6154C115.611 32.4073 115.885 32.1772 116.136 31.9362C116.388 31.6842 116.619 31.4213 116.816 31.1255L114.208 28.5182H117.889C117.944 28.1785 117.977 27.828 117.977 27.4665V27.4555C117.966 27.1049 117.944 26.7544 117.878 26.4148ZM113.233 27.4774C113.233 27.9485 113.146 28.3977 112.992 28.8139C112.576 28.9673 112.127 29.055 111.656 29.055C111.185 29.055 110.736 28.9673 110.319 28.8139C110.166 28.3977 110.078 27.9485 110.078 27.4774V27.4665C110.078 26.9954 110.166 26.5462 110.319 26.1299C110.736 25.9765 111.185 25.8889 111.656 25.8889C112.127 25.8889 112.576 25.9765 112.992 26.1299C113.146 26.5462 113.233 26.9954 113.233 27.4774Z" fill="#E6E6E6"/>
</g>
<defs>
<clipPath id="clip0_31_3465">
<rect width="100" height="50" fill="white" transform="translate(51.0834 20)"/>
</clipPath>
</defs>
</svg>
