<svg width="203" height="90" viewBox="0 0 203 90" fill="none" xmlns="http://www.w3.org/2000/svg">
<g clip-path="url(#clip0_31_3468)">
<path d="M50.1194 23.207C38.0382 23.207 28.244 33.001 28.244 45.0822C28.244 57.1639 38.0382 66.957 50.1194 66.957C62.2019 66.957 71.9951 57.1639 71.9951 45.0822C71.9951 33.0018 62.2019 23.2081 50.1192 23.2081L50.1194 23.207ZM60.1514 54.7572C59.7595 55.3999 58.9184 55.6036 58.2758 55.2092C53.1397 52.0719 46.6739 51.3614 39.0593 53.1011C38.3256 53.2683 37.5942 52.8085 37.427 52.0745C37.259 51.3405 37.7169 50.6091 38.4525 50.4419C46.7855 48.5381 53.9333 49.3578 59.6994 52.8817C60.342 53.2761 60.5458 54.1146 60.1514 54.7572ZM62.8289 48.8009C62.3352 49.6034 61.285 49.8568 60.4831 49.363C54.603 45.7488 45.6398 44.7021 38.6848 46.8133C37.7828 47.0857 36.8301 46.5774 36.5563 45.677C36.2847 44.775 36.7933 43.8241 37.6937 43.5498C45.6382 41.1393 55.5147 42.307 62.2672 46.4564C63.0692 46.9501 63.3226 48.0003 62.8289 48.8012V48.8009ZM63.0587 42.5985C56.0084 38.4109 44.3762 38.0258 37.6448 40.0688C36.5639 40.3967 35.4208 39.7864 35.0932 38.7055C34.7657 37.6241 35.3753 36.4817 36.4571 36.1531C44.1842 33.8074 57.0298 34.2606 65.1469 39.0793C66.1213 39.6564 66.44 40.912 65.8627 41.883C65.288 42.8553 64.0289 43.1758 63.0598 42.5985H63.0587ZM87.7598 43.4009C83.9825 42.5003 83.3112 41.8681 83.3112 40.5398C83.3112 39.2849 84.4919 38.4404 86.2499 38.4404C87.9531 38.4404 89.6406 39.0817 91.4116 40.4019C91.4639 40.4418 91.5318 40.4578 91.5971 40.4473C91.665 40.4374 91.7225 40.4011 91.7617 40.3465L93.6059 37.7468C93.6816 37.6397 93.6607 37.4921 93.5589 37.4104C91.4508 35.7195 89.0789 34.8974 86.3048 34.8974C82.2271 34.8974 79.3772 37.3448 79.3772 40.8465C79.3772 44.6015 81.8353 45.9311 86.0827 46.9575C89.6954 47.79 90.3067 48.4874 90.3067 49.734C90.3067 51.1158 89.0737 51.9752 87.0884 51.9752C84.8837 51.9752 83.0839 51.2308 81.0725 49.491C81.0229 49.4466 80.955 49.4283 80.8923 49.431C80.8244 49.4362 80.7643 49.4675 80.7225 49.5172L78.6536 51.9779C78.5674 52.0823 78.5779 52.2339 78.6771 52.3227C81.0177 54.4124 83.8963 55.5148 87.0048 55.5148C91.3986 55.5148 94.238 53.1142 94.238 49.397C94.2459 46.2605 92.3677 44.5234 87.7676 43.4043L87.7598 43.4009ZM104.18 39.6759C102.276 39.6759 100.714 40.4262 99.4233 41.9634V40.2331C99.4233 40.0965 99.3136 39.9852 99.1777 39.9852H95.7949C95.6591 39.9852 95.5494 40.0965 95.5494 40.2331V59.4592C95.5494 59.5951 95.6591 59.7074 95.7949 59.7074H99.1777C99.3136 59.7074 99.4233 59.5951 99.4233 59.4592V53.3911C100.714 54.8356 102.276 55.5435 104.18 55.5435C107.72 55.5435 111.304 52.819 111.304 47.6105C111.309 42.401 107.725 39.6757 104.183 39.6757L104.18 39.6759ZM107.37 47.6105C107.37 50.2616 105.737 52.1137 103.396 52.1137C101.085 52.1137 99.3397 50.1781 99.3397 47.6105C99.3397 45.0427 101.085 43.1076 103.396 43.1076C105.698 43.1073 107.37 45.0007 107.37 47.6103V47.6105ZM120.486 39.6759C115.927 39.6759 112.356 43.1857 112.356 47.6672C112.356 52.1006 115.904 55.5723 120.431 55.5723C125.005 55.5723 128.586 52.0745 128.586 47.6105C128.586 43.1617 125.028 39.6765 120.486 39.6765V39.6759ZM120.486 52.1398C118.061 52.1398 116.233 50.1911 116.233 47.6092C116.233 45.0156 117.999 43.1335 120.431 43.1335C122.87 43.1335 124.709 45.0814 124.709 47.6659C124.709 50.259 122.933 52.1398 120.486 52.1398ZM138.319 39.9852H134.597V36.1803C134.597 36.0439 134.487 35.9327 134.351 35.9327H130.968C130.832 35.9327 130.72 36.0439 130.72 36.1803V39.9852H129.095C128.96 39.9852 128.85 40.0965 128.85 40.2331V43.1397C128.85 43.2761 128.96 43.3876 129.095 43.3876H130.72V50.9095C130.72 53.9475 132.233 55.4887 135.218 55.4887C136.43 55.4887 137.436 55.2379 138.384 54.6998C138.463 54.658 138.51 54.5744 138.51 54.4856V51.7166C138.51 51.6331 138.465 51.5521 138.392 51.5077C138.319 51.4606 138.228 51.458 138.152 51.4972C137.501 51.8237 136.872 51.9752 136.167 51.9752C135.083 51.9752 134.597 51.4815 134.597 50.3792V43.3889H138.319C138.455 43.3889 138.565 43.2776 138.565 43.141V40.2347C138.57 40.0981 138.46 39.9868 138.322 39.9868L138.319 39.9852ZM151.286 40.0001V39.5328C151.286 38.158 151.814 37.5449 152.994 37.5449C153.7 37.5449 154.267 37.6849 154.901 37.8965C154.98 37.9211 155.061 37.9088 155.123 37.862C155.189 37.8153 155.225 37.7403 155.225 37.6609V34.811C155.225 34.702 155.157 34.6057 155.05 34.5735C154.382 34.3742 153.525 34.1697 152.24 34.1697C149.118 34.1697 147.464 35.9287 147.464 39.2549V39.9706H145.84C145.704 39.9706 145.591 40.0819 145.591 40.2182V43.1397C145.591 43.2761 145.704 43.3876 145.84 43.3876H147.464V54.9871C147.464 55.1256 147.577 55.2353 147.713 55.2353H151.093C151.231 55.2353 151.341 55.1256 151.341 54.9871V43.3884H154.499L159.337 54.9871C158.788 56.2044 158.248 56.4473 157.511 56.4473C156.915 56.4473 156.286 56.2697 155.646 55.9171C155.586 55.8857 155.513 55.8805 155.45 55.8988C155.385 55.9223 155.33 55.9693 155.304 56.032L154.157 58.5476C154.102 58.6677 154.149 58.8062 154.264 58.8689C155.46 59.5167 156.539 59.7936 157.874 59.7936C160.371 59.7936 161.753 58.6285 162.968 55.4991L168.835 40.3387C168.866 40.2624 168.856 40.1762 168.809 40.1085C168.764 40.0414 168.689 40.0009 168.608 40.0009H165.086C164.979 40.0009 164.885 40.068 164.851 40.167L161.244 50.468L157.294 40.1602C157.258 40.0644 157.166 40.0009 157.064 40.0009H151.286V40.0001ZM143.768 39.9852H140.385C140.249 39.9852 140.137 40.0965 140.137 40.2331V54.9871C140.137 55.1256 140.249 55.2353 140.385 55.2353H143.768C143.904 55.2353 144.016 55.1256 144.016 54.9871V40.2342C144.016 40.0976 143.907 39.9863 143.768 39.9863V39.9852ZM142.096 33.2669C140.756 33.2669 139.67 34.3515 139.67 35.6913C139.67 37.0319 140.756 38.1178 142.096 38.1178C143.436 38.1178 144.52 37.0319 144.52 35.6913C144.52 34.3517 143.434 33.2669 142.096 33.2669ZM171.724 44.7293C170.387 44.7293 169.344 43.6543 169.344 42.349C169.344 41.0437 170.4 39.9565 171.737 39.9565C173.074 39.9565 174.117 41.0312 174.117 42.3354C174.117 43.6407 173.061 44.7293 171.724 44.7293ZM171.737 40.1932C170.517 40.1932 169.595 41.1623 169.595 42.349C169.595 43.5352 170.512 44.4913 171.724 44.4913C172.944 44.4913 173.866 43.5229 173.866 42.3354C173.866 41.1492 172.949 40.1932 171.737 40.1932ZM172.265 42.5802L172.939 43.5227H172.369L171.763 42.658H171.243V43.5227H170.768V41.0244H171.881C172.463 41.0244 172.845 41.3214 172.845 41.8213C172.847 42.2309 172.609 42.4812 172.267 42.5802H172.265ZM171.862 41.453H171.243V42.2432H171.862C172.171 42.2432 172.356 42.092 172.356 41.8477C172.356 41.5907 172.171 41.453 171.862 41.453Z" fill="#E6E6E6"/>
</g>
<defs>
<clipPath id="clip0_31_3468">
<rect width="145.833" height="50" fill="white" transform="translate(28.1666 20)"/>
</clipPath>
</defs>
</svg>
