<svg width="203" height="90" viewBox="0 0 203 90" fill="none" xmlns="http://www.w3.org/2000/svg">
<g clip-path="url(#clip0_31_3471)">
<path fill-rule="evenodd" clip-rule="evenodd" d="M133.07 41.4581C133.46 42.1306 133.587 42.8958 133.629 43.756L133.685 44.9025V52.92L133.741 54.0678C133.854 55.9422 135.237 57.3282 137.126 57.4461L138.267 57.5026V44.9025L138.324 43.756C138.371 42.9054 138.497 42.1258 138.893 41.4484C139.296 40.7537 139.875 40.1773 140.572 39.7771C141.268 39.3769 142.058 39.167 142.861 39.1684C143.665 39.1699 144.453 39.3827 145.149 39.7854C145.844 40.1881 146.421 40.7667 146.821 41.4629C147.211 42.1354 147.333 42.915 147.38 43.756L147.436 44.8989V52.92L147.493 54.0678C147.611 55.9518 148.982 57.3378 150.877 57.4461L152.019 57.5026V43.756C152.019 41.3252 151.053 38.9939 149.335 37.2748C147.616 35.5556 145.285 34.5893 142.855 34.5883C141.554 34.587 140.267 34.8633 139.082 35.3987C137.896 35.9342 136.838 36.7166 135.979 37.6936C135.119 36.717 134.062 35.9348 132.876 35.3992C131.69 34.8635 130.404 34.5867 129.103 34.5871C127.2 34.5871 125.434 35.1646 123.971 36.162C123.078 35.1658 121.081 34.5871 119.934 34.5871V57.5026L121.081 57.4461C122.999 57.3197 124.385 55.9711 124.459 54.0678L124.521 52.92V44.9025L124.577 43.756C124.625 42.8909 124.746 42.1306 125.137 41.4532C125.54 40.7589 126.119 40.1826 126.815 39.782C127.511 39.3813 128.3 39.1702 129.103 39.1698C129.907 39.1699 130.697 39.3814 131.393 39.7831C132.089 40.1847 132.667 40.7623 133.07 41.4581ZM54.6241 57.4473L55.7707 57.5026H72.957L72.9004 56.3597C72.7452 54.4756 71.411 53.0993 69.5209 52.9765L68.3744 52.92H58.0638L71.8104 39.1686L71.7539 38.0268C71.6648 36.1235 70.274 34.7484 68.3744 34.6437L67.2278 34.592L50.0415 34.5871L50.098 35.7337C50.2484 37.5997 51.6019 39.0049 53.4764 39.1132L54.6241 39.1698H64.9347L51.1881 52.9212L51.2446 54.0678C51.3577 55.9566 52.7208 57.3246 54.6241 57.4461V57.4473ZM115.436 37.9414C116.5 39.0053 117.344 40.2684 117.92 41.6587C118.496 43.0489 118.793 44.5389 118.793 46.0437C118.793 47.5485 118.496 49.0385 117.92 50.4287C117.344 51.8189 116.5 53.082 115.436 54.146C113.286 56.2942 110.371 57.5009 107.332 57.5009C104.293 57.5009 101.378 56.2942 99.2279 54.146C94.7535 49.6716 94.7535 42.4157 99.2279 37.9414C100.291 36.8778 101.553 36.0341 102.943 35.4584C104.332 34.8826 105.821 34.5862 107.325 34.5859C108.831 34.5849 110.323 34.8808 111.715 35.4568C113.106 36.0328 114.371 36.8775 115.436 37.9426V37.9414ZM112.194 41.1862C113.482 42.4759 114.206 44.2246 114.206 46.0479C114.206 47.8712 113.482 49.6199 112.194 50.9096C110.904 52.1984 109.155 52.9223 107.332 52.9223C105.509 52.9223 103.76 52.1984 102.47 50.9096C101.181 49.6199 100.458 47.8712 100.458 46.0479C100.458 44.2246 101.181 42.4759 102.47 41.1862C103.76 39.8974 105.509 39.1734 107.332 39.1734C109.155 39.1734 110.904 39.8974 112.194 41.1862ZM83.2772 34.5859C84.7811 34.5863 86.2702 34.883 87.6595 35.4589C89.0487 36.0348 90.311 36.8788 91.374 37.9426C95.8496 42.4157 95.8496 49.6728 91.374 54.146C89.2241 56.2942 86.3092 57.5009 83.2699 57.5009C80.2307 57.5009 77.3158 56.2942 75.1659 54.146C70.6915 49.6716 70.6915 42.4157 75.1659 37.9414C76.229 36.8778 77.4913 36.0341 78.8806 35.4584C80.2698 34.8826 81.7589 34.5862 83.2627 34.5859H83.2772ZM88.1317 41.1837C89.4208 42.4735 90.145 44.2225 90.145 46.0461C90.145 47.8697 89.4208 49.6186 88.1317 50.9084C86.8419 52.1972 85.0932 52.9211 83.2699 52.9211C81.4467 52.9211 79.698 52.1972 78.4082 50.9084C77.1194 49.6187 76.3955 47.87 76.3955 46.0467C76.3955 44.2234 77.1194 42.4747 78.4082 41.1849C79.698 39.8962 81.4467 39.1722 83.2699 39.1722C85.0932 39.1722 86.8419 39.8962 88.1317 41.1849V41.1837Z" fill="#E6E6E6"/>
</g>
<defs>
<clipPath id="clip0_31_3471">
<rect width="102.083" height="50" fill="white" transform="translate(50.0417 20)"/>
</clipPath>
</defs>
</svg>
