<svg width="203" height="90" viewBox="0 0 203 90" fill="none" xmlns="http://www.w3.org/2000/svg">
<g clip-path="url(#clip0_31_3474)">
<path d="M77.5672 53.7806L79.0965 50.2061C80.7709 51.4462 82.9549 52.1025 85.1395 52.1025C86.7413 52.1025 87.7605 51.4827 87.7605 50.5345C87.724 47.9083 78.1133 49.9508 78.0402 43.3481C78.0037 39.9924 80.9891 37.4027 85.2126 37.4027C87.724 37.4027 90.2364 38.023 92.02 39.4458L90.5909 43.0964C88.9499 42.0412 86.923 41.3056 84.9938 41.3056C83.6833 41.3056 82.8093 41.9253 82.8093 42.7283C82.8458 45.318 92.5301 43.8953 92.6392 50.2061C92.6392 53.6349 89.7263 56.0424 85.576 56.0424C82.5184 56.0424 79.7152 55.313 77.5667 53.7806H77.5672ZM138.461 48.9118C138.075 49.5977 137.513 50.1685 136.834 50.5658C136.155 50.9631 135.382 51.1725 134.595 51.1726C132.142 51.1726 130.154 49.1802 130.154 46.7226C130.154 44.2649 132.142 42.2725 134.595 42.2725C135.382 42.2726 136.155 42.482 136.834 42.8793C137.513 43.2766 138.075 43.8474 138.461 44.5333L142.713 42.1733C141.12 39.3272 138.082 37.4027 134.595 37.4027C129.458 37.4027 125.293 41.575 125.293 46.7226C125.293 51.8696 129.458 56.0424 134.595 56.0424C138.082 56.0424 141.12 54.1179 142.713 51.2718L138.461 48.9118ZM95.3981 55.6774H100.713V29.6445H95.3986L95.3981 55.6774ZM145.397 29.6445V55.6774H150.712V47.878L157.01 55.6774H163.804L155.795 46.4119L163.222 37.7661H156.719L150.712 44.9541V29.6445H145.397ZM117.089 37.7672V39.8833C116.215 38.424 114.067 37.4027 111.81 37.4027C107.15 37.4027 103.473 41.5248 103.473 46.7043C103.473 51.8837 107.15 56.0424 111.81 56.0424C114.067 56.0424 116.215 55.0211 117.089 53.5618V55.6774H122.404V37.7672H117.089ZM117.089 48.9478C116.324 50.2244 114.722 51.1721 112.939 51.1721C110.485 51.1721 108.497 49.1802 108.497 46.7226C108.497 44.2649 110.485 42.2725 112.939 42.2725C114.722 42.2725 116.324 43.2572 117.089 44.5699V48.9478Z" fill="#E6E6E6"/>
<path d="M49.4982 29.0664C47.7757 29.0664 46.3796 30.4657 46.3796 32.1913C46.3792 32.6012 46.4595 33.0073 46.616 33.3862C46.7725 33.7651 47.0021 34.1095 47.2917 34.3996C47.5813 34.6898 47.9252 34.9201 48.3038 35.0774C48.6824 35.2346 49.0883 35.3158 49.4982 35.3162H52.6174V32.1913C52.6181 31.3633 52.2898 30.5689 51.7049 29.9829C51.12 29.3969 50.3262 29.0672 49.4982 29.0664ZM49.4982 37.3994H41.1814C39.4589 37.3994 38.0627 38.7987 38.0627 40.5248C38.0627 42.2505 39.4589 43.6497 41.1814 43.6497H49.4987C51.2207 43.6497 52.6174 42.2505 52.6174 40.5248C52.6174 38.7987 51.2207 37.3994 49.4982 37.3994Z" fill="#E6E6E6"/>
<path d="M69.2502 40.5248C69.2502 38.7987 67.8535 37.3994 66.131 37.3994C64.4086 37.3994 63.0124 38.7987 63.0124 40.5248V43.6497H66.131C66.959 43.6489 67.7528 43.3192 68.3377 42.7332C68.9227 42.1472 69.2509 41.3528 69.2502 40.5248ZM60.9333 40.5248V32.1913C60.934 31.3633 60.6058 30.5689 60.0209 29.9829C59.4359 29.3969 58.6422 29.0672 57.8142 29.0664C56.0917 29.0664 54.6956 30.4657 54.6956 32.1913V40.5243C54.6956 42.251 56.0917 43.6503 57.8142 43.6503C58.6422 43.6494 59.4359 43.3197 60.0209 42.7337C60.6058 42.1477 60.934 41.3534 60.9333 40.5254" fill="#E6E6E6"/>
<path d="M57.8142 60.3177C58.6422 60.3169 59.4359 59.9872 60.0209 59.4012C60.6058 58.8152 60.934 58.0208 60.9333 57.1928C60.934 56.3648 60.6058 55.5705 60.0209 54.9845C59.4359 54.3984 58.6422 54.0688 57.8142 54.0679H54.6956V57.1928C54.6956 58.9184 56.0917 60.3177 57.8142 60.3177ZM57.8142 51.9847H66.1316C67.8535 51.9847 69.2502 50.5854 69.2502 48.8593C69.2509 48.0313 68.9227 47.2369 68.3377 46.6509C67.7528 46.0649 66.959 45.7352 66.131 45.7344H57.8142C56.0917 45.7344 54.6956 47.1337 54.6956 48.8593C54.6951 49.2692 54.7755 49.6752 54.932 50.0541C55.0885 50.4331 55.3181 50.7774 55.6077 51.0676C55.8973 51.3578 56.2412 51.5881 56.6198 51.7453C56.9984 51.9026 57.4042 51.9837 57.8142 51.9842" fill="#E6E6E6"/>
<path d="M38.0627 48.8593C38.0623 49.2692 38.1427 49.6752 38.2992 50.0541C38.4557 50.4331 38.6853 50.7774 38.9749 51.0676C39.2645 51.3578 39.6084 51.5881 39.987 51.7453C40.3656 51.9026 40.7714 51.9837 41.1814 51.9842C42.0094 51.9833 42.8031 51.6536 43.3881 51.0676C43.973 50.4816 44.3012 49.6873 44.3005 48.8593V45.7344H41.1814C39.4589 45.7344 38.0627 47.1337 38.0627 48.8593ZM46.3796 48.8593V57.1923C46.3796 58.9184 47.7757 60.3177 49.4982 60.3177C50.3262 60.3169 51.12 59.9872 51.7049 59.4012C52.2898 58.8152 52.6181 58.0208 52.6174 57.1928V48.8593C52.6178 48.4493 52.5374 48.0432 52.3809 47.6643C52.2243 47.2853 51.9947 46.9409 51.7051 46.6507C51.4154 46.3606 51.0714 46.1303 50.6928 45.9731C50.3141 45.8158 49.9082 45.7347 49.4982 45.7344C47.7757 45.7344 46.3796 47.1337 46.3796 48.8593Z" fill="#E6E6E6"/>
</g>
<defs>
<clipPath id="clip0_31_3474">
<rect width="126.042" height="50" fill="white" transform="translate(38.0625 20)"/>
</clipPath>
</defs>
</svg>
