<svg width="203" height="90" viewBox="0 0 203 90" fill="none" xmlns="http://www.w3.org/2000/svg">
<g clip-path="url(#clip0_31_3481)">
<path fill-rule="evenodd" clip-rule="evenodd" d="M114.556 59.3812C107.927 64.2671 98.3191 66.8739 90.0469 66.8739C78.4479 66.8739 68.0058 62.5838 60.1059 55.4486C59.4853 54.8876 60.0414 54.1229 60.7862 54.5598C69.3117 59.5202 79.8531 62.5044 90.742 62.5044C98.0857 62.5044 106.164 60.985 113.592 57.832C114.715 57.3553 115.653 58.5669 114.556 59.3812Z" fill="#E6E6E6"/>
<path fill-rule="evenodd" clip-rule="evenodd" d="M117.312 56.2282C116.467 55.1458 111.711 55.7168 109.576 55.97C108.925 56.0495 108.826 55.4834 109.412 55.0763C113.2 52.4099 119.417 53.1795 120.142 54.0733C120.867 54.972 119.953 61.2035 116.393 64.1777C115.847 64.6345 115.325 64.3912 115.569 63.7855C116.368 61.7894 118.161 57.3156 117.312 56.2282Z" fill="#E6E6E6"/>
<path fill-rule="evenodd" clip-rule="evenodd" d="M109.726 36.2538V33.6619C109.726 33.2696 110.024 33.0065 110.382 33.0065H121.986C122.358 33.0065 122.656 33.2746 122.656 33.6619V35.8814C122.651 36.2538 122.338 36.7404 121.782 37.51L115.769 46.0951C118.003 46.0405 120.362 46.3731 122.388 47.5152C122.845 47.7733 122.969 48.1507 123.003 48.5231V51.2888C123.003 51.6662 122.586 52.1081 122.149 51.8797C118.579 50.0077 113.837 49.8042 109.89 51.8995C109.488 52.118 109.066 51.6811 109.066 51.3037V48.677C109.066 48.255 109.071 47.535 109.493 46.8945L116.459 36.9042H110.397C110.024 36.9042 109.726 36.6411 109.726 36.2538Z" fill="#E6E6E6"/>
<path fill-rule="evenodd" clip-rule="evenodd" d="M67.3967 52.4259H63.8664C63.5287 52.4011 63.2606 52.1478 63.2358 51.8251V33.7066C63.2358 33.3441 63.5387 33.0562 63.916 33.0562H67.208C67.5507 33.071 67.8237 33.3342 67.8486 33.6619V36.0304H67.9131C68.7721 33.7414 70.3859 32.6738 72.5607 32.6738C74.7702 32.6738 76.1506 33.7414 77.1437 36.0304C77.9977 33.7414 79.9391 32.6738 82.0196 32.6738C83.4993 32.6738 85.118 33.2846 86.1061 34.655C87.2233 36.1793 86.9949 38.3939 86.9949 40.3353L86.9899 51.7705C86.9899 52.1329 86.687 52.4259 86.3097 52.4259H82.7843C82.4317 52.4011 82.1487 52.118 82.1487 51.7705V42.1675C82.1487 41.4029 82.2182 39.4962 82.0494 38.7712C81.7863 37.5547 80.9968 37.2121 79.9739 37.2121C79.1199 37.2121 78.2261 37.7831 77.8636 38.6968C77.5012 39.6104 77.5359 41.1397 77.5359 42.1675V51.7705C77.5359 52.1329 77.233 52.4259 76.8557 52.4259H73.3303C72.9728 52.4011 72.6947 52.118 72.6947 51.7705L72.6898 42.1675C72.6898 40.1466 73.0224 37.1724 70.515 37.1724C67.9777 37.1724 68.077 40.0722 68.077 42.1675V51.7705C68.077 52.1329 67.7741 52.4259 67.3967 52.4259Z" fill="#E6E6E6"/>
<path fill-rule="evenodd" clip-rule="evenodd" d="M132.646 32.6738C137.884 32.6738 140.72 37.1724 140.72 42.8925C140.72 48.4189 137.587 52.8033 132.646 52.8033C127.502 52.8033 124.701 48.3047 124.701 42.6988C124.701 37.0582 127.537 32.6738 132.646 32.6738ZM132.676 36.373C130.074 36.373 129.91 39.9182 129.91 42.1278C129.91 44.3423 129.875 49.0693 132.646 49.0693C135.382 49.0693 135.511 45.256 135.511 42.9322C135.511 41.4029 135.446 39.5756 134.985 38.1258C134.587 36.8646 133.798 36.373 132.676 36.373Z" fill="#E6E6E6"/>
<path fill-rule="evenodd" clip-rule="evenodd" d="M147.512 52.4259H143.997C143.644 52.4011 143.361 52.118 143.361 51.7705L143.356 33.647C143.386 33.3143 143.679 33.0562 144.037 33.0562H147.309C147.617 33.071 147.87 33.2796 147.939 33.5626V36.3333H148.004C148.992 33.8556 150.377 32.6738 152.815 32.6738C154.399 32.6738 155.943 33.2448 156.937 34.8089C157.86 36.2588 157.86 38.6968 157.86 40.4495V51.8549C157.82 52.1727 157.527 52.4259 157.18 52.4259H153.64C153.317 52.4011 153.049 52.1627 153.014 51.8549V42.0136C153.014 40.0324 153.242 37.1327 150.804 37.1327C149.945 37.1327 149.156 37.7087 148.764 38.5826C148.267 39.6898 148.203 40.7921 148.203 42.0136V51.7705C148.198 52.1329 147.89 52.4259 147.512 52.4259Z" fill="#E6E6E6"/>
<path fill-rule="evenodd" clip-rule="evenodd" d="M100.476 43.7713C100.476 45.1467 100.511 46.2937 99.8154 47.5152C99.2543 48.5082 98.3606 49.119 97.3725 49.119C96.0169 49.119 95.2225 48.0862 95.2225 46.5618C95.2225 43.5528 97.9187 43.0066 100.476 43.0066V43.7713ZM104.036 52.3762C103.803 52.5848 103.465 52.5997 103.202 52.4606C102.03 51.4874 101.816 51.0356 101.176 50.1071C99.2394 52.0833 97.864 52.6741 95.3565 52.6741C92.3823 52.6741 90.0734 50.8419 90.0734 47.1726C90.0734 44.3076 91.6226 42.3562 93.8372 41.4028C95.7538 40.5587 98.4301 40.4098 100.476 40.1764V39.7196C100.476 38.8804 100.54 37.8874 100.044 37.1624C99.6168 36.512 98.7926 36.2439 98.0627 36.2439C96.717 36.2439 95.5204 36.934 95.2275 38.3641C95.1679 38.6818 94.9345 38.9947 94.6118 39.0095L91.1906 38.6421C90.9026 38.5776 90.5799 38.3442 90.6643 37.9023C91.4488 33.7513 95.2026 32.5 98.5592 32.5C100.277 32.5 102.522 32.9568 103.877 34.2577C105.595 35.8615 105.431 38.0016 105.431 40.3303V45.8319C105.431 47.4854 106.116 48.2103 106.762 49.1041C106.985 49.4218 107.035 49.8042 106.747 50.0425C106.027 50.6433 104.746 51.7605 104.041 52.3861L104.036 52.3762Z" fill="#E6E6E6"/>
<path fill-rule="evenodd" clip-rule="evenodd" d="M54.1939 43.7713C54.1939 45.1467 54.2286 46.2937 53.5335 47.5151C52.9724 48.5082 52.0836 49.1189 51.0905 49.1189C49.735 49.1189 48.9455 48.0862 48.9455 46.5618C48.9455 43.5528 51.6417 43.0066 54.1939 43.0066V43.7713ZM57.754 52.3762C57.5206 52.5847 57.183 52.5996 56.9198 52.4606C55.748 51.4874 55.5395 51.0356 54.894 50.107C52.9575 52.0832 51.5871 52.6741 49.0746 52.6741C46.1053 52.6741 43.7915 50.8419 43.7915 47.1725C43.7915 44.3075 45.3457 42.3562 47.5552 41.4028C49.4718 40.5587 52.1481 40.4098 54.1939 40.1764V39.7196C54.1939 38.8804 54.2584 37.8874 53.7668 37.1624C53.3349 36.512 52.5106 36.2439 51.7857 36.2439C50.4401 36.2439 49.2385 36.934 48.9455 38.364C48.8859 38.6818 48.6526 38.9946 48.3348 39.0095L44.9087 38.6421C44.6207 38.5776 44.3029 38.3442 44.3824 37.9023C45.1719 33.7513 48.9207 32.5 52.2772 32.5C53.9952 32.5 56.2396 32.9568 57.5951 34.2577C59.3131 35.8615 59.1493 38.0016 59.1493 40.3303V45.8319C59.1493 47.4854 59.8345 48.2103 60.48 49.1041C60.7084 49.4218 60.758 49.8042 60.47 50.0425C59.7501 50.6433 58.469 51.7605 57.7639 52.3861L57.754 52.3762Z" fill="#E6E6E6"/>
</g>
<defs>
<clipPath id="clip0_31_3481">
<rect width="114.583" height="50" fill="white" transform="translate(43.7917 20)"/>
</clipPath>
</defs>
</svg>
