<svg width="203" height="90" viewBox="0 0 203 90" fill="none" xmlns="http://www.w3.org/2000/svg">
<g clip-path="url(#clip0_31_3485)">
<path d="M47.0573 26.25H31.8125V62.7083L47.0573 26.25Z" fill="#E6E6E6"/>
<path d="M57.7842 26.25H73.0091V62.7083L57.7842 26.25Z" fill="#E6E6E6"/>
<path d="M52.4194 39.6875L62.1224 62.7086H55.7563L52.8564 55.3792H45.7554L52.4194 39.6875Z" fill="#E6E6E6"/>
<path d="M97.8789 49.4343L99.6765 54.5887C99.7361 54.7178 99.8255 54.7774 99.9844 54.7774H103.441C103.629 54.7774 103.659 54.688 103.629 54.4993L96.4885 34.6662C96.4587 34.5073 96.4289 34.4775 96.27 34.4775H91.9796C91.8605 34.4775 91.7909 34.5669 91.7909 34.696C91.7313 35.7388 91.642 36.0566 91.5129 36.3645L85.1468 54.4695C85.117 54.688 85.1865 54.7774 85.3653 54.7774H88.454C88.6427 54.7774 88.7321 54.7178 88.8016 54.5291L90.4999 49.4343H97.8789ZM91.4831 46.0675C92.4166 43.247 93.6481 39.632 94.1447 37.5662H94.1745C94.7902 39.7313 96.2402 44.0217 96.8957 46.0675H91.4831Z" fill="#E6E6E6"/>
<path d="M112.809 55.0843C114.666 55.0843 116.642 54.7467 118.648 53.8826C118.807 53.823 118.837 53.7535 118.837 53.6046C118.778 53.0484 118.708 52.244 118.708 51.6282V32.9571C118.708 32.8379 118.708 32.7783 118.559 32.7783H115.192C115.063 32.7783 115.004 32.8379 115.004 32.9968V39.3231C114.477 39.2636 114.11 39.2338 113.673 39.2338C108.24 39.2338 104.903 42.819 104.903 47.2981C104.903 52.4922 108.33 55.0843 112.809 55.0843ZM115.004 51.6282C114.447 51.807 113.832 51.8765 113.206 51.8765C110.743 51.8765 108.727 50.4861 108.727 47.1094C108.727 44.12 110.803 42.3522 113.554 42.3522C114.11 42.3522 114.596 42.4118 115.004 42.5707V51.6282Z" fill="#E6E6E6"/>
<path d="M129.577 39.2334C124.939 39.2334 122.069 42.7889 122.069 47.1786C122.069 51.1015 124.353 55.084 129.507 55.084C133.867 55.084 136.926 51.8761 136.926 47.0792C136.926 42.8484 134.334 39.2334 129.577 39.2334ZM129.388 42.3519C132.01 42.3519 133.123 44.6063 133.123 47.1786C133.123 50.3566 131.484 51.9357 129.577 51.9357C127.223 51.9357 125.833 49.9594 125.833 47.109C125.833 44.1793 127.313 42.3519 129.388 42.3519Z" fill="#E6E6E6"/>
<path d="M140.407 32.7783C140.278 32.7783 140.189 32.8379 140.189 32.9968V54.1309C140.189 54.2203 140.278 54.3792 140.407 54.409C141.887 54.8659 143.437 55.0843 145.036 55.0843C149.614 55.0843 154.063 52.244 154.063 46.5234C154.063 42.382 151.223 39.2338 146.774 39.2338C145.751 39.2338 144.797 39.3927 143.963 39.6707L143.923 33.0266C143.923 32.8081 143.864 32.7783 143.645 32.7783H140.407ZM150.259 46.9008C150.259 50.3272 147.916 51.9361 145.383 51.9361C144.857 51.9361 144.39 51.9063 143.963 51.7772V42.7594C144.45 42.5707 145.036 42.4118 146.118 42.4118C148.561 42.4118 150.259 43.9611 150.259 46.9008Z" fill="#E6E6E6"/>
<path d="M166.629 48.0128C168.138 48.0128 169.38 47.983 169.807 47.8837C169.966 47.8539 170.025 47.7943 170.055 47.6652C170.144 47.3275 170.184 46.6224 170.184 45.7584C170.184 42.8187 168.416 39.2334 163.848 39.2334C159.18 39.2334 156.588 43.0371 156.588 47.3275C156.588 51.1313 158.594 55.084 164.215 55.084C166.321 55.084 167.681 54.7463 168.853 54.1902C168.972 54.1306 169.032 54.0313 169.032 53.8525V51.2802C169.032 51.1313 168.943 51.1015 168.853 51.1611C167.681 51.6576 166.41 51.9059 165.02 51.9059C161.871 51.9059 160.441 50.1679 160.352 48.0128H166.629ZM160.352 45.3512C160.6 43.8416 161.554 42.2029 163.689 42.2029C166.043 42.2029 166.658 44.1793 166.658 45.0731C166.658 45.1029 166.658 45.232 166.658 45.3214C166.529 45.3512 166.132 45.3512 164.96 45.3512H160.352Z" fill="#E6E6E6"/>
</g>
<defs>
<clipPath id="clip0_31_3485">
<rect width="138.542" height="50" fill="white" transform="translate(31.8125 20)"/>
</clipPath>
</defs>
</svg>
