<svg width="34" height="34" viewBox="0 0 34 34" fill="none" xmlns="http://www.w3.org/2000/svg">
<path fill-rule="evenodd" clip-rule="evenodd" d="M7.32623 4.49304C5.6665 6.15277 5.6665 8.82406 5.6665 14.1666V19.8333C5.6665 25.1759 5.6665 27.8472 7.32623 29.5069C8.98596 31.1666 11.6573 31.1666 16.9998 31.1666C22.3424 31.1666 25.0137 31.1666 26.6734 29.5069C28.3332 27.8472 28.3332 25.1759 28.3332 19.8333V14.1666C28.3332 8.82406 28.3332 6.15277 26.6734 4.49304C25.0137 2.83331 22.3424 2.83331 16.9998 2.83331C11.6573 2.83331 8.98596 2.83331 7.32623 4.49304ZM12.7498 6.02081C12.163 6.02081 11.6873 6.49651 11.6873 7.08331C11.6873 7.67012 12.163 8.14581 12.7498 8.14581H21.2498C21.8366 8.14581 22.3123 7.67012 22.3123 7.08331C22.3123 6.49651 21.8366 6.02081 21.2498 6.02081H12.7498ZM16.9998 26.9166C18.5646 26.9166 19.8332 25.6481 19.8332 24.0833C19.8332 22.5185 18.5646 21.25 16.9998 21.25C15.435 21.25 14.1665 22.5185 14.1665 24.0833C14.1665 25.6481 15.435 26.9166 16.9998 26.9166Z" fill="#0A84FF"/>
</svg>
