<svg width="34" height="34" viewBox="0 0 34 34" fill="none" xmlns="http://www.w3.org/2000/svg">
<path d="M2.8335 9.20837C2.8335 5.68756 5.68768 2.83337 9.2085 2.83337C12.7293 2.83337 15.5835 5.68756 15.5835 9.20837V13.4584C15.5835 13.9524 15.5835 14.1994 15.5292 14.4021C15.3818 14.9521 14.9522 15.3817 14.4022 15.5291C14.1996 15.5834 13.9525 15.5834 13.4585 15.5834H9.2085C5.68768 15.5834 2.8335 12.7292 2.8335 9.20837Z" fill="#0A84FF"/>
<path d="M18.4168 20.5417C18.4168 20.0477 18.4168 19.8006 18.4711 19.598C18.6185 19.048 19.0481 18.6184 19.5981 18.471C19.8008 18.4167 20.0478 18.4167 20.5418 18.4167H24.7918C28.3126 18.4167 31.1668 21.2709 31.1668 24.7917C31.1668 28.3125 28.3126 31.1667 24.7918 31.1667C21.271 31.1667 18.4168 28.3125 18.4168 24.7917V20.5417Z" fill="#0A84FF"/>
<path d="M2.8335 24.7917C2.8335 21.2709 5.68768 18.4167 9.2085 18.4167H13.0335C13.9261 18.4167 14.3724 18.4167 14.7133 18.5904C15.0132 18.7432 15.257 18.987 15.4098 19.2869C15.5835 19.6278 15.5835 20.0741 15.5835 20.9667V24.7917C15.5835 28.3125 12.7293 31.1667 9.2085 31.1667C5.68768 31.1667 2.8335 28.3125 2.8335 24.7917Z" fill="#0A84FF"/>
<path d="M18.4168 9.20837C18.4168 5.68756 21.271 2.83337 24.7918 2.83337C28.3126 2.83337 31.1668 5.68756 31.1668 9.20837C31.1668 12.7292 28.3126 15.5834 24.7918 15.5834H20.2383C20.0268 15.5834 19.9211 15.5834 19.8321 15.5734C19.0932 15.4901 18.5101 14.907 18.4269 14.1681C18.4168 14.0791 18.4168 13.9734 18.4168 13.7619V9.20837Z" fill="#0A84FF"/>
</svg>
