<svg width="29" height="30" viewBox="0 0 29 30" fill="none" xmlns="http://www.w3.org/2000/svg">
<path fill-rule="evenodd" clip-rule="evenodd" d="M14.2403 1.47475e-06H14.093C12.8202 -3.81404e-05 11.7588 -7.13517e-05 10.9162 0.113213C10.0268 0.232786 9.22382 0.495819 8.57857 1.14107C7.93332 1.78632 7.67028 2.58928 7.55071 3.47866C7.43743 4.32126 7.43746 5.38265 7.4375 6.65548V6.7656C4.57417 6.85928 2.85474 7.19388 1.65973 8.3889C0 10.0486 0 12.7199 0 18.0625C0 23.4051 0 26.0764 1.65973 27.7361C3.31946 29.3958 5.99075 29.3958 11.3333 29.3958H17C22.3426 29.3958 25.0139 29.3958 26.6736 27.7361C28.3333 26.0764 28.3333 23.4051 28.3333 18.0625C28.3333 12.7199 28.3333 10.0486 26.6736 8.3889C25.4786 7.19388 23.7592 6.85928 20.8958 6.7656V6.65551C20.8959 5.38268 20.8959 4.32126 20.7826 3.47866C20.6631 2.58928 20.4 1.78632 19.7548 1.14107C19.1095 0.495819 18.3066 0.232786 17.4172 0.113213C16.5746 -7.13517e-05 15.5132 -3.81404e-05 14.2403 1.47475e-06ZM18.7708 6.73184V6.72917C18.7708 5.36349 18.7686 4.44611 18.6766 3.76181C18.5887 3.10807 18.4368 2.82829 18.2522 2.64367C18.0676 2.45905 17.7878 2.30716 17.134 2.21926C16.4497 2.12726 15.5324 2.12501 14.1667 2.12501C12.801 2.12501 11.8836 2.12726 11.1993 2.21926C10.5456 2.30716 10.2658 2.45905 10.0812 2.64367C9.89655 2.82829 9.74465 3.10807 9.65676 3.76181C9.56476 4.44611 9.5625 5.36349 9.5625 6.72917V6.73184C10.1179 6.72917 10.7073 6.72917 11.3333 6.72917H17C17.6261 6.72917 18.2155 6.72917 18.7708 6.73184ZM21.25 10.9792C21.25 11.7616 20.6157 12.3958 19.8333 12.3958C19.0509 12.3958 18.4167 11.7616 18.4167 10.9792C18.4167 10.1968 19.0509 9.5625 19.8333 9.5625C20.6157 9.5625 21.25 10.1968 21.25 10.9792ZM8.5 12.3958C9.2824 12.3958 9.91667 11.7616 9.91667 10.9792C9.91667 10.1968 9.2824 9.5625 8.5 9.5625C7.7176 9.5625 7.08333 10.1968 7.08333 10.9792C7.08333 11.7616 7.7176 12.3958 8.5 12.3958Z" fill="#0A84FF"/>
</svg>
