<svg width="14" height="16" viewBox="0 0 14 16" fill="none" xmlns="http://www.w3.org/2000/svg">
<path d="M2.48957 2.44757C3.60731 1.35219 5.11217 0.742172 6.67715 0.750076C8.24212 0.75798 9.74074 1.38317 10.8474 2.48979C11.954 3.5964 12.5792 5.09503 12.5871 6.66C12.595 8.22497 11.985 9.72984 10.8896 10.8476L7.75007 13.9871C7.46878 14.2683 7.08732 14.4263 6.68957 14.4263C6.29182 14.4263 5.91036 14.2683 5.62907 13.9871L2.48957 10.8476C1.37574 9.73362 0.75 8.22285 0.75 6.64757C0.75 5.07229 1.37574 3.56152 2.48957 2.44757Z" stroke="#0A84FF" stroke-width="1.5" stroke-linejoin="round"/>
<path d="M6.68945 8.89758C7.93209 8.89758 8.93945 7.89022 8.93945 6.64758C8.93945 5.40494 7.93209 4.39758 6.68945 4.39758C5.44681 4.39758 4.43945 5.40494 4.43945 6.64758C4.43945 7.89022 5.44681 8.89758 6.68945 8.89758Z" stroke="#0A84FF" stroke-width="1.5" stroke-linecap="round" stroke-linejoin="round"/>
</svg>
