<svg width="455" height="110" viewBox="0 0 455 110" fill="none" xmlns="http://www.w3.org/2000/svg">
<path d="M279 109L389 109" stroke="#0E9E2F" stroke-width="0.5" stroke-dasharray="3 3"/>
<path d="M10.816 35.592V25.96H2.592V28.552C2.592 32.92 2.4 34.152 1.328 35.592H0.16V39.88H1.632V37H10.816V39.88H12.288V35.592H10.816ZM4.032 29.032V27.368H9.344V35.592H2.96C3.68 34.408 4.032 32.824 4.032 29.032ZM17.207 36.04C15.495 36.04 14.455 35.528 14.455 33.048C14.455 30.472 15.495 29.96 17.207 29.96C18.919 29.96 19.975 30.488 19.975 33.048C19.975 35.528 18.919 36.04 17.207 36.04ZM17.207 28.76C14.615 28.76 13.047 29.768 13.047 33.048C13.047 36.232 14.615 37.24 17.207 37.24C19.831 37.24 21.367 36.232 21.367 33.048C21.367 29.768 19.831 28.76 17.207 28.76ZM30.7513 34.392H29.3593C29.1033 35.72 28.1433 36.04 26.8633 36.04C25.1513 36.04 24.1113 35.528 24.1113 33.048C24.1113 30.472 25.1513 29.96 26.8633 29.96C28.0633 29.96 29.0393 30.264 29.2953 31.56H30.7033C30.3673 29.432 28.9273 28.76 26.8633 28.76C24.2713 28.76 22.7033 29.768 22.7033 33.048C22.7033 36.232 24.2713 37.24 26.8633 37.24C28.9593 37.24 30.4473 36.52 30.7513 34.392ZM38.4534 29H31.2214V30.2H34.1334V37H35.5414V30.2H38.4534V29ZM41.9743 37.24C43.3183 37.24 44.5023 36.76 44.9983 35.672H45.1583V37H46.5663V31.656C46.5663 29.592 45.2063 28.76 42.9183 28.76C40.7263 28.76 39.5423 29.448 39.2383 31.56H40.5983C40.8063 30.264 41.5103 29.96 42.9183 29.96C44.5183 29.96 45.1583 30.44 45.1583 31.656V32.328C44.1823 32.28 43.5903 32.232 42.2943 32.232C39.5583 32.232 38.9663 33.576 38.9663 34.696C38.9663 36.552 40.2303 37.24 41.9743 37.24ZM42.4383 36.04C41.0303 36.04 40.3743 35.72 40.3743 34.68C40.3743 33.96 40.6623 33.304 42.8383 33.304C43.4783 33.304 44.2623 33.32 45.1583 33.368V34.2C45.0783 35.736 43.7183 36.04 42.4383 36.04ZM48.3811 29V37H52.9571C54.7651 37 55.5811 36.056 55.5811 34.872C55.5811 33.656 54.8931 33.16 53.6611 33.048V32.84C54.7491 32.728 55.3731 32.168 55.3731 31.016C55.3731 30.008 54.6531 29 52.6051 29H48.3811ZM49.7891 33.528H52.7651C53.9011 33.528 54.1891 34.008 54.1891 34.696C54.1891 35.528 53.5811 35.8 52.6371 35.8H49.7891V33.528ZM49.7891 30.2H52.4931C53.7411 30.2 53.9811 30.632 53.9811 31.256C53.9811 31.88 53.6931 32.392 52.7811 32.392H49.7891V30.2ZM57.5654 29V33.096C57.5654 35.224 57.2294 35.72 56.3974 35.72V37H56.6534C58.2534 37 58.9254 35.848 58.9254 33.288V30.2H62.6534V37H64.0614V29H57.5654ZM71.5924 34.136V37H73.0004V29H68.6164C66.5684 29 65.8484 30.12 65.8484 31.528C65.8484 32.744 66.4084 33.688 67.5124 34.008L65.4644 37H67.1284L68.9204 34.136H71.5924ZM67.2404 31.528C67.2404 30.744 67.4804 30.2 68.7284 30.2H71.5924V32.936H68.4404C67.5284 32.936 67.2404 32.28 67.2404 31.528ZM82.6419 33.528V32.456C82.6419 29.944 81.1699 28.76 78.7219 28.76C76.1619 28.76 74.5939 29.768 74.5939 33.048C74.5939 36.232 76.1619 37.24 78.7539 37.24C80.8499 37.24 82.3379 36.568 82.6419 34.584H81.2499C81.0419 35.768 80.0179 36.04 78.7539 36.04C77.1219 36.04 76.0499 35.576 76.0019 33.528H82.6419ZM78.7219 29.96C80.1939 29.96 81.2179 30.472 81.2179 32.392H76.0179C76.0979 30.36 77.2339 29.96 78.7219 29.96ZM85.6485 31.544L88.6405 34.776L91.6645 31.56V37H93.0725V29H92.2405L88.6565 33.016L85.0725 29H84.2405V37H85.6485V31.544ZM98.803 29V37H100.211V30.2H104.691V29H98.803ZM110.344 37.24C112.632 37.24 113.976 36.408 113.976 33C113.976 29.592 112.632 28.76 110.344 28.76C109 28.76 107.976 29.24 107.48 30.328H107.32V29H105.912V39.88H107.32V35.672H107.48C107.976 36.76 109 37.24 110.344 37.24ZM109.816 29.96C111.816 29.96 112.584 30.312 112.584 33C112.584 35.688 111.816 36.04 109.816 36.04C108.552 36.04 107.32 35.736 107.32 34.072V31.928C107.32 30.264 108.552 29.96 109.816 29.96ZM118.296 36.44L116.648 39.88H118.12L123.224 29H121.72L119 35.016L115.864 29H114.328L118.296 36.44ZM127.431 29.96C129.223 29.96 129.575 30.552 129.575 31.256C129.575 31.88 129.287 32.392 128.375 32.392H126.487V33.528H128.359C129.495 33.528 129.783 34.008 129.783 34.696C129.783 35.736 128.951 36.04 127.399 36.04C125.863 36.04 125.079 35.72 124.935 34.392H123.543C123.719 36.52 125.015 37.24 127.399 37.24C130.103 37.24 131.175 36.264 131.175 34.872C131.175 33.656 130.487 33.16 129.255 33.048V32.84C130.343 32.728 130.967 32.168 130.967 31.016C130.967 29.816 130.055 28.76 127.431 28.76C125.223 28.76 123.847 29.448 123.639 31.56H125.047C125.174 30.264 126.071 29.96 127.431 29.96ZM136.055 31.912H134.039V29H132.631V37H136.231C138.023 37 138.855 35.928 138.855 34.376C138.855 32.968 138.151 31.912 136.055 31.912ZM141.575 29H140.167V37H141.575V29ZM134.039 33.048H136.039C137.175 33.048 137.463 33.608 137.463 34.376C137.463 35.464 136.855 35.8 135.911 35.8H134.039V33.048ZM147.303 29V37H148.711V30.2H153.335V37H154.743V29H147.303ZM160.504 36.04C158.792 36.04 157.752 35.528 157.752 33.048C157.752 30.472 158.792 29.96 160.504 29.96C162.216 29.96 163.272 30.488 163.272 33.048C163.272 35.528 162.216 36.04 160.504 36.04ZM160.504 28.76C157.912 28.76 156.344 29.768 156.344 33.048C156.344 36.232 157.912 37.24 160.504 37.24C163.128 37.24 164.664 36.232 164.664 33.048C164.664 29.768 163.128 28.76 160.504 28.76ZM169.944 29V37H174.52C176.328 37 177.144 36.056 177.144 34.872C177.144 33.656 176.456 33.16 175.224 33.048V32.84C176.312 32.728 176.936 32.168 176.936 31.016C176.936 30.008 176.216 29 174.168 29H169.944ZM171.352 33.528H174.328C175.464 33.528 175.752 34.008 175.752 34.696C175.752 35.528 175.144 35.8 174.2 35.8H171.352V33.528ZM171.352 30.2H174.056C175.304 30.2 175.544 30.632 175.544 31.256C175.544 31.88 175.256 32.392 174.344 32.392H171.352V30.2ZM186.392 34.392H185C184.744 35.72 183.784 36.04 182.504 36.04C180.792 36.04 179.752 35.528 179.752 33.048C179.752 30.472 180.792 29.96 182.504 29.96C183.704 29.96 184.68 30.264 184.936 31.56H186.344C186.008 29.432 184.568 28.76 182.504 28.76C179.912 28.76 178.344 29.768 178.344 33.048C178.344 36.232 179.912 37.24 182.504 37.24C184.6 37.24 186.088 36.52 186.392 34.392ZM195.626 33.528V32.456C195.626 29.944 194.154 28.76 191.706 28.76C189.146 28.76 187.578 29.768 187.578 33.048C187.578 36.232 189.146 37.24 191.738 37.24C193.834 37.24 195.322 36.568 195.626 34.584H194.234C194.026 35.768 193.002 36.04 191.738 36.04C190.106 36.04 189.034 35.576 188.986 33.528H195.626ZM191.706 29.96C193.178 29.96 194.202 30.472 194.202 32.392H189.002C189.082 30.36 190.218 29.96 191.706 29.96ZM198.633 31.544L201.625 34.776L204.649 31.56V37H206.057V29H205.225L201.641 33.016L198.057 29H197.225V37H198.633V31.544ZM210.952 36.44L209.304 39.88H210.776L215.88 29H214.376L211.656 35.016L208.52 29H206.984L210.952 36.44ZM2.336 57.544L5.328 60.776L8.352 57.56V63H9.76V55H8.928L5.344 59.016L1.76 55H0.928V63H2.336V57.544ZM17.5035 63H18.9115V55H18.1115L13.0235 60.68V55H11.6155V63H12.4155L17.5035 57.384V63ZM25.2038 63.24C27.4918 63.24 28.8358 62.408 28.8358 59C28.8358 55.592 27.4918 54.76 25.2038 54.76C23.8598 54.76 22.8358 55.24 22.3398 56.328H22.1798V55H20.7718V65.88H22.1798V61.672H22.3398C22.8358 62.76 23.8598 63.24 25.2038 63.24ZM24.6758 55.96C26.6758 55.96 27.4438 56.312 27.4438 59C27.4438 61.688 26.6758 62.04 24.6758 62.04C23.4118 62.04 22.1798 61.736 22.1798 60.072V57.928C22.1798 56.264 23.4118 55.96 24.6758 55.96ZM33.1555 62.44L31.5075 65.88H32.9795L38.0835 55H36.5795L33.8595 61.016L30.7235 55H29.1875L33.1555 62.44ZM42.3968 55V63H46.9728C48.7808 63 49.5968 62.056 49.5968 60.872C49.5968 59.656 48.9088 59.16 47.6768 59.048V58.84C48.7648 58.728 49.3888 58.168 49.3888 57.016C49.3888 56.008 48.6688 55 46.6208 55H42.3968ZM43.8048 59.528H46.7808C47.9168 59.528 48.2048 60.008 48.2048 60.696C48.2048 61.528 47.5968 61.8 46.6528 61.8H43.8048V59.528ZM43.8048 56.2H46.5088C47.7568 56.2 47.9968 56.632 47.9968 57.256C47.9968 57.88 47.7088 58.392 46.7968 58.392H43.8048V56.2ZM63.392 63V61.592H56.432V58.136H63.216V56.728H56.432V53.368H63.376V51.96H54.96V63H63.392ZM65.0374 55V63H69.6134C71.4214 63 72.2374 62.056 72.2374 60.872C72.2374 59.656 71.5494 59.16 70.3174 59.048V58.84C71.4054 58.728 72.0294 58.168 72.0294 57.016C72.0294 56.008 71.3094 55 69.2614 55H65.0374ZM66.4454 59.528H69.4214C70.5574 59.528 70.8454 60.008 70.8454 60.696C70.8454 61.528 70.2374 61.8 69.2934 61.8H66.4454V59.528ZM66.4454 56.2H69.1494C70.3974 56.2 70.6374 56.632 70.6374 57.256C70.6374 57.88 70.3494 58.392 69.4374 58.392H66.4454V56.2ZM78.1256 63.24C80.4136 63.24 81.7576 62.408 81.7576 59C81.7576 55.592 80.4136 54.76 78.1256 54.76C76.7816 54.76 75.7576 55.24 75.2616 56.328H75.1016V55H73.6936V65.88H75.1016V61.672H75.2616C75.7576 62.76 76.7816 63.24 78.1256 63.24ZM77.5976 55.96C79.5976 55.96 80.3656 56.312 80.3656 59C80.3656 61.688 79.5976 62.04 77.5976 62.04C76.3336 62.04 75.1016 61.736 75.1016 60.072V57.928C75.1016 56.264 76.3336 55.96 77.5976 55.96ZM87.2539 62.04C85.5419 62.04 84.5019 61.528 84.5019 59.048C84.5019 56.472 85.5419 55.96 87.2539 55.96C88.9659 55.96 90.0219 56.488 90.0219 59.048C90.0219 61.528 88.9659 62.04 87.2539 62.04ZM87.2539 54.76C84.6619 54.76 83.0939 55.768 83.0939 59.048C83.0939 62.232 84.6619 63.24 87.2539 63.24C89.8779 63.24 91.4139 62.232 91.4139 59.048C91.4139 55.768 89.8779 54.76 87.2539 54.76ZM93.0061 55V63H94.4141V56.2H99.0381V63H100.446V55H93.0061ZM105.343 62.44L103.695 65.88H105.167L110.271 55H108.767L106.047 61.016L102.911 55H101.375L105.343 62.44ZM109.885 65.464H110.813L111.997 62.76V61.208H110.173V63H110.765L109.885 65.464ZM121.326 51.96L116.094 63H117.71L118.686 60.872H124.926L125.886 63H127.55L122.366 51.96H121.326ZM119.326 59.512L121.854 54.04L124.318 59.512H119.326ZM131.915 55.96C133.707 55.96 134.059 56.552 134.059 57.256C134.059 57.88 133.771 58.392 132.859 58.392H130.971V59.528H132.843C133.979 59.528 134.267 60.008 134.267 60.696C134.267 61.736 133.435 62.04 131.883 62.04C130.347 62.04 129.563 61.72 129.419 60.392H128.027C128.203 62.52 129.499 63.24 131.883 63.24C134.587 63.24 135.659 62.264 135.659 60.872C135.659 59.656 134.971 59.16 133.739 59.048V58.84C134.827 58.728 135.451 58.168 135.451 57.016C135.451 55.816 134.539 54.76 131.915 54.76C129.707 54.76 128.331 55.448 128.123 57.56H129.531C129.659 56.264 130.555 55.96 131.915 55.96ZM143.004 63H144.411V55H143.612L138.524 60.68V55H137.116V63H137.916L143.004 57.384V63ZM153.296 63.24C155.856 63.24 157.376 62.232 157.376 59.048C157.376 55.768 155.856 54.76 153.296 54.76C150.928 54.76 149.44 55.624 149.232 58.36H147.68V55H146.272V63H147.68V59.56H149.216C149.392 62.328 150.896 63.24 153.296 63.24ZM153.296 55.96C154.944 55.96 155.984 56.488 155.984 59.048C155.984 61.528 154.96 62.04 153.296 62.04C151.632 62.04 150.624 61.528 150.624 59.048C150.624 56.472 151.632 55.96 153.296 55.96ZM158.463 65.464H159.391L160.575 62.76V61.208H158.751V63H159.343L158.463 65.464ZM169.904 51.96L164.672 63H166.288L167.264 60.872H173.504L174.464 63H176.128L170.944 51.96H169.904ZM167.904 59.512L170.432 54.04L172.896 59.512H167.904ZM178.461 57.544L181.453 60.776L184.477 57.56V63H185.885V55H185.053L181.469 59.016L177.885 55H177.053V63H178.461V57.544ZM195.533 59.528V58.456C195.533 55.944 194.061 54.76 191.613 54.76C189.053 54.76 187.485 55.768 187.485 59.048C187.485 62.232 189.053 63.24 191.645 63.24C193.741 63.24 195.229 62.568 195.533 60.584H194.141C193.933 61.768 192.909 62.04 191.645 62.04C190.013 62.04 188.941 61.576 188.893 59.528H195.533ZM191.613 55.96C193.085 55.96 194.109 56.472 194.109 58.392H188.909C188.989 56.36 190.125 55.96 191.613 55.96ZM201.563 63.24C203.851 63.24 205.195 62.408 205.195 59C205.195 55.592 203.851 54.76 201.563 54.76C200.219 54.76 199.195 55.24 198.699 56.328H198.539V55H197.131V65.88H198.539V61.672H198.699C199.195 62.76 200.219 63.24 201.563 63.24ZM201.035 55.96C203.035 55.96 203.803 56.312 203.803 59C203.803 61.688 203.035 62.04 201.035 62.04C199.771 62.04 198.539 61.736 198.539 60.072V57.928C198.539 56.264 199.771 55.96 201.035 55.96ZM212.675 63H214.083V55H213.283L208.195 60.68V55H206.787V63H207.587L212.675 57.384V63ZM219.448 58.664L223.112 55H221.272L217.352 59.064V55H215.944V63H217.352V59.496H218.52L221.512 63H223.288L219.448 58.664ZM227.406 62.44L225.758 65.88H227.23L232.334 55H230.83L228.11 61.016L224.974 55H223.438L227.406 62.44ZM231.947 65.464H232.875L234.059 62.76V61.208H232.235V63H232.827L231.947 65.464ZM9.392 89V87.592H2.432V84.136H9.216V82.728H2.432V79.368H9.376V77.96H0.96V89H9.392ZM11.0374 81V89H12.4454V82.2H16.9254V81H11.0374ZM24.0348 89H25.4427V81H24.6428L19.5548 86.68V81H18.1468V89H18.9468L24.0348 83.384V89ZM27.303 81V89H28.711V82.2H33.335V89H34.743V81H27.303ZM44.3919 85.528V84.456C44.3919 81.944 42.9199 80.76 40.4719 80.76C37.9119 80.76 36.3439 81.768 36.3439 85.048C36.3439 88.232 37.9119 89.24 40.5039 89.24C42.5999 89.24 44.0879 88.568 44.3919 86.584H42.9999C42.7919 87.768 41.7679 88.04 40.5039 88.04C38.8719 88.04 37.7999 87.576 37.7519 85.528H44.3919ZM40.4719 81.96C41.9439 81.96 42.9679 82.472 42.9679 84.392H37.7679C37.8479 82.36 38.9839 81.96 40.4719 81.96ZM52.2503 81H45.0183V82.2H47.9303V89H49.3383V82.2H52.2503V81Z" fill="#92938F"/>
<path d="M269 31L379 31" stroke="#0E9E2F" stroke-width="0.5" stroke-dasharray="3 3"/>
<path d="M269 70L379 70" stroke="#0E9E2F" stroke-width="0.5" stroke-dasharray="3 3"/>
<path d="M422.765 24.0474H432.279V27.1938H422.765V24.0474Z" fill="#C5C5C5"/>
<path d="M423.064 20.002H427.11V23.523H423.064V20.002Z" fill="#C5C5C5"/>
<path d="M427.934 20.002H431.979V23.523H427.934V20.002Z" fill="#C5C5C5"/>
<path d="M417.97 20.002H422.015V23.523H417.97V20.002Z" fill="#C5C5C5"/>
<path d="M413.025 20.002H417.071V23.523H413.025V20.002Z" fill="#C5C5C5"/>
<path d="M412.801 24.0474H422.315V27.1938H412.801V24.0474Z" fill="#C5C5C5"/>
<path d="M397.068 19.9272H398.417V21.3508H397.068V19.9272Z" fill="#C5C5C5"/>
<path d="M399.316 19.9272H400.665V21.3508H399.316V19.9272Z" fill="#C5C5C5"/>
<path d="M401.488 22.1743H402.836V23.5978H401.488V22.1743Z" fill="#C5C5C5"/>
<path d="M399.316 22.1743H400.665V23.5978H399.316V22.1743Z" fill="#C5C5C5"/>
<path d="M397.068 22.1743H398.417V23.5978H397.068V22.1743Z" fill="#C5C5C5"/>
<path d="M401.488 19.9272H402.836V21.3508H401.488V19.9272Z" fill="#C5C5C5"/>
<path d="M403.736 19.9272H405.085V21.3508H403.736V19.9272Z" fill="#C5C5C5"/>
<path d="M403.736 22.1743H405.085V23.5978H403.736V22.1743Z" fill="#C5C5C5"/>
<path d="M434.751 24.9463C434.751 26.5198 433.702 27.7932 432.503 27.7932H432.278L419.992 27.7927V30.8643H445.388V29.3662L448.235 24.9463L434.751 24.9463ZM443.366 27.7927C442.917 27.7927 442.617 27.3433 442.617 26.8186C442.617 26.294 442.991 25.8445 443.366 25.8445C443.815 25.8445 444.115 26.294 444.115 26.8186C444.115 27.4185 443.74 27.7927 443.366 27.7927Z" fill="#C5C5C5"/>
<path d="M412.201 27.7931C412.126 27.7931 412.201 27.7931 412.201 27.7931C410.853 27.7931 409.729 26.5196 409.504 24.9462H407.032V17.5295H400.964L400.889 8.615H403.361V7.19148H400.889V4.34457L403.137 4.34509V3.67098H400.889V0H400.44V3.67098H399.316V4.34509H400.44L400.29 17.53H399.091V15.2824H397.143V17.53H393.472V24.9467H391L392.049 29.3666L392.423 30.8648H433.327V27.7931L412.201 27.7931ZM396.244 23.6732H394.896V22.2497H396.244V23.6732ZM396.244 21.3504H394.896V19.9269H396.244V21.3504ZM398.417 23.6732H397.069V22.2497H398.417V23.6732ZM398.417 21.3504H397.069V19.9269H398.417V21.3504ZM400.664 23.6732H399.316V22.2497H400.664V23.6732ZM400.664 21.3504H399.316V19.9269H400.664V21.3504ZM402.837 23.6732H401.489V22.2497H402.837V23.6732ZM402.837 21.3504H401.489V19.9269H402.837V21.3504ZM405.085 23.6732H403.736V22.2497H405.085V23.6732ZM405.085 21.3504H403.736V19.9269H405.085V21.3504Z" fill="#C5C5C5"/>
<path d="M434.786 68.2465H438.674C438.15 68.6617 437.81 69.2609 437.81 69.8867C437.81 71.1629 439.045 72.2034 440.557 72.2034C442.069 72.2034 443.304 71.1629 443.304 69.8867C443.304 69.2882 443.056 68.715 442.532 68.2465H445V67.4124H442.532V64.0001H406.307V54.2598H392.761V55.4599H399.827V60.6665H395.599V66.4239L403.961 66.4238C404.577 66.5012 404.517 67.1785 403.93 67.2304H391V68.2468H396.092C395.599 68.6621 395.26 69.2613 395.26 69.8871C395.26 71.1633 396.494 72.2037 398.006 72.2037C399.518 72.2037 400.751 71.1632 400.751 69.8871C400.751 69.2358 400.411 68.6388 399.918 68.2468H404.022C403.991 68.3493 403.962 68.4555 403.962 68.5316C403.962 70.6163 405.998 72.3346 408.436 72.3346C410.873 72.3346 412.878 70.6428 412.878 68.5316C412.878 68.4551 412.848 68.3238 412.848 68.2199H414.916C414.916 68.3489 414.885 68.4542 414.885 68.5316C414.885 70.6163 416.921 72.3346 419.359 72.3346C421.796 72.3346 423.802 70.6428 423.802 68.5316C423.802 68.4802 423.771 68.4017 423.74 68.2468H425.962C425.962 68.3762 425.931 68.4555 425.931 68.5316C425.931 70.6163 427.966 72.3346 430.405 72.3346C432.842 72.3346 434.848 70.6428 434.848 68.5316C434.848 68.4555 434.817 68.3753 434.786 68.2468" fill="#C5C5C5"/>
<path d="M431.329 55.7802H432.022L432.648 55.7801H433.029H433.526H434.261H434.803L435.078 55.7802L436.021 55.7801L439.508 55.7802L442.531 59.6078L439.508 63.4377H407.201V55.7559C409.36 55.8338 409.206 55.0782 409.36 54.5308H422.814C422.874 54.9482 422.814 55.7804 424.511 55.7804L431.329 55.7802Z" fill="#C5C5C5"/>
<path fill-rule="evenodd" clip-rule="evenodd" d="M447.137 93.0151V95.465H452.277V96.1174H447.137V100.082H446.174V90H444.504V91.4337H402.669V90H401V104.581H404.357L405.622 107.18H406.29C406.29 105.855 407.362 104.783 408.687 104.783C410.011 104.783 411.083 105.855 411.083 107.18H411.926C411.926 105.855 412.997 104.783 414.321 104.783C415.646 104.783 416.718 105.855 416.718 107.18H417.548L418.814 104.581H433.312L434.578 107.18H436.264C436.264 105.855 437.336 104.783 438.661 104.783C439.986 104.783 441.058 105.855 441.058 107.18H447.41C447.41 105.855 448.481 104.783 449.806 104.783C451.121 104.783 452.185 105.838 452.202 107.149C453.314 107.066 454.924 106.907 454.924 105.655V96.4977C454.924 94.4428 448.796 93.184 447.136 93.0149L447.137 93.0151ZM416.753 102.107H405.38V103.046H416.753V102.107ZM430.422 102.107H419.049V103.046H430.422V102.107ZM445.933 103.003H437.246L435.056 103.838H445.933L445.933 103.003ZM447.055 101.177H443.664V102.011H447.055V101.177ZM408.687 105.39C407.698 105.39 406.896 106.191 406.896 107.18C406.896 108.17 407.698 108.971 408.687 108.971C409.676 108.971 410.478 108.17 410.478 107.18C410.478 106.192 409.676 105.39 408.687 105.39ZM414.322 105.39C413.333 105.39 412.531 106.191 412.531 107.18C412.531 108.17 413.333 108.971 414.322 108.971C415.311 108.971 416.113 108.17 416.113 107.18C416.113 106.192 415.311 105.39 414.322 105.39ZM438.662 105.39C437.673 105.39 436.871 106.191 436.871 107.18C436.871 108.17 437.673 108.971 438.662 108.971C439.651 108.971 440.453 108.17 440.453 107.18C440.453 106.192 439.651 105.39 438.662 105.39ZM449.806 105.39C448.818 105.39 448.016 106.191 448.016 107.18C448.016 108.17 448.817 108.971 449.806 108.971C450.796 108.971 451.597 108.17 451.597 107.18C451.597 106.192 450.796 105.39 449.806 105.39ZM454.181 102.196V97.693H451.119C449.399 97.693 448.582 100.046 451.119 101.019L454.181 102.196Z" fill="#C5C5C5"/>
</svg>
