<svg width="42" height="42" viewBox="0 0 42 42" fill="none" xmlns="http://www.w3.org/2000/svg">
<path d="M21 1C32.0457 1 41 9.9543 41 21C41 32.0457 32.0457 41 21 41C9.9543 41 1 32.0457 1 21C1 9.9543 9.9543 1 21 1Z" stroke="#2A84EE" stroke-width="2"/>
<path fill-rule="evenodd" clip-rule="evenodd" d="M17.229 26.6568L26.6571 17.2287C27.1775 16.7083 27.1775 15.8635 26.6571 15.3431C26.1367 14.8227 25.2919 14.8227 24.7715 15.3431L15.3434 24.7712C14.823 25.2916 14.823 26.1364 15.3434 26.6568C15.8638 27.1772 16.7086 27.1772 17.229 26.6568Z" fill="#2A84EE"/>
<path fill-rule="evenodd" clip-rule="evenodd" d="M26.6571 24.7713L17.229 15.3432C16.7086 14.8228 15.8638 14.8228 15.3434 15.3432C14.823 15.8636 14.823 16.7084 15.3434 17.2288L24.7715 26.6569C25.2919 27.1773 26.1367 27.1773 26.6571 26.6569C27.1775 26.1365 27.1775 25.2917 26.6571 24.7713Z" fill="#2A84EE"/>
</svg>
