<svg width="215" height="29" viewBox="0 0 215 29" fill="none" xmlns="http://www.w3.org/2000/svg">
<path d="M6.06205 6.43991L4.36805 1.56791L2.67405 6.43991H6.06205ZM0.112047 10.1079L3.71005 0.307909H5.05405L8.65205 10.1079H7.33605L6.42605 7.47591H2.31005L1.40005 10.1079H0.112047ZM14.8416 3.10791H15.9616V10.1079H14.8416V6.91591H11.2016V10.1079H10.0816V3.10791H11.2016V5.87991H14.8416V3.10791ZM22.5033 7.12591V6.77591L20.8653 6.84591C19.4513 6.91591 18.7373 7.36391 18.7373 8.16191C18.7373 8.86191 19.2833 9.29591 20.1653 9.29591C21.4533 9.29591 22.5033 8.31591 22.5033 7.12591ZM23.5953 5.61391V10.1079H22.5033V8.86191C22.0553 9.74391 21.2153 10.3039 20.0253 10.3039C18.5553 10.3039 17.6173 9.46391 17.6173 8.20391C17.6173 6.84591 18.6953 6.00591 20.7533 5.92191L22.5033 5.85191V5.73991C22.5033 4.60591 21.8033 3.91991 20.6693 3.91991C19.8153 3.91991 19.1293 4.31191 18.7373 5.10991L17.8133 4.64791C18.3033 3.55591 19.3673 2.91191 20.6973 2.91191C22.4053 2.91191 23.5953 3.97591 23.5953 5.61391ZM24.9942 10.1919V9.09991H25.1622C26.1142 9.09991 26.4082 8.32991 26.4082 5.69791V3.10791H31.4762V10.1079H30.3562V4.14391H27.4442V5.99191C27.4442 9.11391 26.8702 10.1919 25.2742 10.1919H24.9942ZM33.6109 3.10791H34.7309V8.44191L38.4269 3.10791H39.5749V10.1079H38.4549V4.77391L34.7589 10.1079H33.6109V3.10791ZM40.9206 3.10791H46.8566V4.14391H44.4486V10.1079H43.3286V4.14391H40.9206V3.10791ZM48.1988 3.10791H49.3188V8.44191L53.0148 3.10791H54.1628V10.1079H53.0428V4.77391L49.3468 10.1079H48.1988V3.10791ZM60.8845 10.1079L58.3925 7.02791H57.4545V10.1079H56.3345V3.10791H57.4545V5.96391H58.3925L60.8145 3.10791H62.2565L59.3165 6.46791L62.2985 10.1079H60.8845ZM68.058 7.12591V6.77591L66.42 6.84591C65.006 6.91591 64.292 7.36391 64.292 8.16191C64.292 8.86191 64.838 9.29591 65.72 9.29591C67.008 9.29591 68.058 8.31591 68.058 7.12591ZM69.15 5.61391V10.1079H68.058V8.86191C67.61 9.74391 66.77 10.3039 65.58 10.3039C64.11 10.3039 63.172 9.46391 63.172 8.20391C63.172 6.84591 64.25 6.00591 66.308 5.92191L68.058 5.85191V5.73991C68.058 4.60591 67.358 3.91991 66.224 3.91991C65.37 3.91991 64.684 4.31191 64.292 5.10991L63.368 4.64791C63.858 3.55591 64.922 2.91191 66.252 2.91191C67.96 2.91191 69.15 3.97591 69.15 5.61391ZM74.9136 3.10791H76.0336V8.44191L79.7296 3.10791H80.8776V10.1079H79.7576V4.77391L76.0616 10.1079H74.9136V3.10791ZM89.8361 10.3039C87.7221 10.3039 86.2241 8.70791 86.2241 6.60791C86.2241 4.50791 87.7221 2.91191 89.8361 2.91191C91.9501 2.91191 93.4481 4.50791 93.4481 6.60791C93.4481 8.70791 91.9501 10.3039 89.8361 10.3039ZM89.8361 9.23991C91.2921 9.23991 92.3001 8.11991 92.3001 6.60791C92.3001 5.09591 91.2921 3.97591 89.8361 3.97591C88.3801 3.97591 87.3721 5.09591 87.3721 6.60791C87.3721 8.11991 88.3801 9.23991 89.8361 9.23991ZM101.098 10.1079H95.1617V3.10791H96.2817V9.07191H99.9217V3.10791H101.042V9.07191H102.134V11.9279H101.098V10.1079ZM103.584 3.10791H104.704V8.44191L108.4 3.10791H109.548V10.1079H108.428V4.77391L104.732 10.1079H103.584V3.10791ZM114.925 2.92591V-9.07183e-05H116.017V2.92591C118.257 3.05191 119.685 4.57791 119.685 6.60791C119.685 8.63791 118.257 10.1639 116.017 10.2899V12.9079H114.925V10.2899C112.685 10.1639 111.257 8.63791 111.257 6.60791C111.257 4.57791 112.685 3.05191 114.925 2.92591ZM116.017 3.96191V9.25391C117.515 9.19791 118.565 8.14791 118.565 6.60791C118.565 5.06791 117.515 4.01791 116.017 3.96191ZM114.925 9.25391V3.96191C113.427 4.01791 112.377 5.06791 112.377 6.60791C112.377 8.14791 113.427 9.19791 114.925 9.25391ZM124.982 9.23991C126.438 9.23991 127.446 8.11991 127.446 6.60791C127.446 5.09591 126.438 3.97591 124.982 3.97591C123.526 3.97591 122.518 5.09591 122.518 6.60791C122.518 8.11991 123.526 9.23991 124.982 9.23991ZM125.136 10.3039C123.946 10.3039 123.05 9.74391 122.518 8.86191V12.9079H121.398V3.10791H122.518V4.35391C123.05 3.47191 123.946 2.91191 125.136 2.91191C127.152 2.91191 128.594 4.49391 128.594 6.60791C128.594 8.72191 127.152 10.3039 125.136 10.3039ZM133.49 10.3039C131.376 10.3039 129.878 8.70791 129.878 6.60791C129.878 4.50791 131.376 2.91191 133.49 2.91191C135.604 2.91191 137.102 4.50791 137.102 6.60791C137.102 8.70791 135.604 10.3039 133.49 10.3039ZM133.49 9.23991C134.946 9.23991 135.954 8.11991 135.954 6.60791C135.954 5.09591 134.946 3.97591 133.49 3.97591C132.034 3.97591 131.026 5.09591 131.026 6.60791C131.026 8.11991 132.034 9.23991 133.49 9.23991ZM139.88 6.95791V9.12791H142.064C142.708 9.12791 143.212 8.72191 143.212 8.02191C143.212 7.33591 142.708 6.95791 142.064 6.95791H139.88ZM139.88 4.08791V5.97791H141.952C142.568 5.97791 142.946 5.58591 142.946 5.02591C142.946 4.47991 142.568 4.08791 141.952 4.08791H139.88ZM142.176 10.1079H138.816V3.10791H142.05C143.184 3.10791 144.038 3.84991 144.038 4.88591C144.038 5.61391 143.604 6.20191 142.918 6.41191C143.772 6.63591 144.304 7.30791 144.304 8.17591C144.304 9.29591 143.422 10.1079 142.176 10.1079ZM150.49 10.1079L147.998 7.02791H147.06V10.1079H145.94V3.10791H147.06V5.96391H147.998L150.42 3.10791H151.862L148.922 6.46791L151.904 10.1079H150.49ZM157.663 7.12591V6.77591L156.025 6.84591C154.611 6.91591 153.897 7.36391 153.897 8.16191C153.897 8.86191 154.443 9.29591 155.325 9.29591C156.613 9.29591 157.663 8.31591 157.663 7.12591ZM158.755 5.61391V10.1079H157.663V8.86191C157.215 9.74391 156.375 10.3039 155.185 10.3039C153.715 10.3039 152.777 9.46391 152.777 8.20391C152.777 6.84591 153.855 6.00591 155.913 5.92191L157.663 5.85191V5.73991C157.663 4.60591 156.963 3.91991 155.829 3.91991C154.975 3.91991 154.289 4.31191 153.897 5.10991L152.973 4.64791C153.463 3.55591 154.527 2.91191 155.857 2.91191C157.565 2.91191 158.755 3.97591 158.755 5.61391ZM164.519 10.1079V3.10791H170.399V10.1079H169.279V4.14391H165.639V10.1079H164.519ZM176.115 9.23991C177.571 9.23991 178.579 8.11991 178.579 6.60791C178.579 5.09591 177.571 3.97591 176.115 3.97591C174.659 3.97591 173.651 5.09591 173.651 6.60791C173.651 8.11991 174.659 9.23991 176.115 9.23991ZM176.269 10.3039C175.079 10.3039 174.183 9.74391 173.651 8.86191V12.9079H172.531V3.10791H173.651V4.35391C174.183 3.47191 175.079 2.91191 176.269 2.91191C178.285 2.91191 179.727 4.49391 179.727 6.60791C179.727 8.72191 178.285 10.3039 176.269 10.3039ZM184.623 10.3039C182.509 10.3039 181.011 8.70791 181.011 6.60791C181.011 4.50791 182.509 2.91191 184.623 2.91191C186.737 2.91191 188.235 4.50791 188.235 6.60791C188.235 8.70791 186.737 10.3039 184.623 10.3039ZM184.623 9.23991C186.079 9.23991 187.087 8.11991 187.087 6.60791C187.087 5.09591 186.079 3.97591 184.623 3.97591C183.167 3.97591 182.159 5.09591 182.159 6.60791C182.159 8.11991 183.167 9.23991 184.623 9.23991ZM191.209 9.07191H194.639V4.14391H191.699V4.95591C191.699 7.20991 191.531 8.32991 191.209 9.07191ZM190.313 11.9279H189.277V9.07191H190.089C190.467 8.51191 190.663 7.34991 190.663 4.35391V3.10791H195.759V9.07191H196.851V11.9279H195.815V10.1079H190.313V11.9279ZM202.712 7.12591V6.77591L201.074 6.84591C199.66 6.91591 198.946 7.36391 198.946 8.16191C198.946 8.86191 199.492 9.29591 200.374 9.29591C201.662 9.29591 202.712 8.31591 202.712 7.12591ZM203.804 5.61391V10.1079H202.712V8.86191C202.264 9.74391 201.424 10.3039 200.234 10.3039C198.764 10.3039 197.826 9.46391 197.826 8.20391C197.826 6.84591 198.904 6.00591 200.962 5.92191L202.712 5.85191V5.73991C202.712 4.60591 202.012 3.91991 200.878 3.91991C200.024 3.91991 199.338 4.31191 198.946 5.10991L198.022 4.64791C198.512 3.55591 199.576 2.91191 200.906 2.91191C202.614 2.91191 203.804 3.97591 203.804 5.61391ZM206.519 3.10791L208.395 5.96391H209.333V3.10791H210.453V5.96391H211.391L213.267 3.10791H214.583L212.231 6.46791L214.639 10.1079H213.351L211.405 7.02791H210.453V10.1079H209.333V7.02791H208.381L206.435 10.1079H205.147L207.541 6.46791L205.203 3.10791H206.519ZM80.6148 21.1079H81.7348V26.4419L85.4308 21.1079H86.5788V28.1079H85.4588V22.7739L81.7628 28.1079H80.6148V21.1079Z" fill="#969EB1"/>
<path d="M2.73005 28.1079L4.68902e-05 18.3079H2.19805L3.97605 25.0979L5.79605 18.3079H8.03605L9.87005 25.0839L11.634 18.3079H13.804L11.074 28.1079H8.89005L6.90205 20.8279L4.91405 28.1079H2.73005ZM14.9025 21.1079H16.6945V28.1079H14.9025V21.1079ZM14.7345 18.8539C14.7345 18.5459 14.8372 18.2939 15.0425 18.0979C15.2572 17.8926 15.5138 17.7899 15.8125 17.7899C16.1112 17.7899 16.3585 17.8926 16.5545 18.0979C16.7598 18.2939 16.8625 18.5459 16.8625 18.8539C16.8625 19.1619 16.7598 19.4186 16.5545 19.6239C16.3585 19.8199 16.1112 19.9179 15.8125 19.9179C15.5138 19.9179 15.2572 19.8199 15.0425 19.6239C14.8372 19.4186 14.7345 19.1619 14.7345 18.8539ZM18.3752 28.1079V17.9999H20.1672V28.1079H18.3752ZM25.2358 26.6239C25.5065 26.6239 25.7538 26.5726 25.9778 26.4699C26.2111 26.3672 26.4118 26.2272 26.5798 26.0499C26.7478 25.8726 26.8785 25.6579 26.9718 25.4059C27.0651 25.1539 27.1118 24.8832 27.1118 24.5939C27.1118 24.2952 27.0651 24.0246 26.9718 23.7819C26.8785 23.5392 26.7478 23.3292 26.5798 23.1519C26.4118 22.9746 26.2111 22.8392 25.9778 22.7459C25.7538 22.6432 25.5065 22.5919 25.2358 22.5919C24.9651 22.5919 24.7131 22.6432 24.4798 22.7459C24.2558 22.8392 24.0598 22.9746 23.8918 23.1519C23.7238 23.3292 23.5931 23.5392 23.4998 23.7819C23.4065 24.0246 23.3598 24.2952 23.3598 24.5939C23.3598 24.8832 23.4065 25.1539 23.4998 25.4059C23.5931 25.6579 23.7238 25.8726 23.8918 26.0499C24.0598 26.2272 24.2558 26.3672 24.4798 26.4699C24.7131 26.5726 24.9651 26.6239 25.2358 26.6239ZM24.7458 28.3039C24.2698 28.3039 23.8311 28.2106 23.4298 28.0239C23.0378 27.8372 22.6971 27.5806 22.4078 27.2539C22.1278 26.9179 21.9085 26.5259 21.7498 26.0779C21.5911 25.6299 21.5118 25.1399 21.5118 24.6079C21.5118 24.0759 21.5911 23.5859 21.7498 23.1379C21.9085 22.6899 22.1278 22.3026 22.4078 21.9759C22.6971 21.6399 23.0378 21.3786 23.4298 21.1919C23.8311 21.0052 24.2698 20.9119 24.7458 20.9119C25.2778 20.9119 25.7398 21.0286 26.1318 21.2619C26.5331 21.4859 26.8598 21.7939 27.1118 22.1859V17.9999H28.9038V28.1079H27.1118V27.0299C26.8598 27.4219 26.5331 27.7346 26.1318 27.9679C25.7398 28.1919 25.2778 28.3039 24.7458 28.3039ZM34.2521 26.6239C34.5228 26.6239 34.7701 26.5726 34.9941 26.4699C35.2275 26.3672 35.4281 26.2272 35.5961 26.0499C35.7641 25.8726 35.8948 25.6579 35.9881 25.4059C36.0815 25.1539 36.1281 24.8832 36.1281 24.5939C36.1281 24.2952 36.0815 24.0246 35.9881 23.7819C35.8948 23.5392 35.7641 23.3292 35.5961 23.1519C35.4281 22.9746 35.2275 22.8392 34.9941 22.7459C34.7701 22.6432 34.5228 22.5919 34.2521 22.5919C33.9815 22.5919 33.7295 22.6432 33.4961 22.7459C33.2721 22.8392 33.0761 22.9746 32.9081 23.1519C32.7401 23.3292 32.6095 23.5392 32.5161 23.7819C32.4228 24.0246 32.3761 24.2952 32.3761 24.5939C32.3761 24.8832 32.4228 25.1539 32.5161 25.4059C32.6095 25.6579 32.7401 25.8726 32.9081 26.0499C33.0761 26.2272 33.2721 26.3672 33.4961 26.4699C33.7295 26.5726 33.9815 26.6239 34.2521 26.6239ZM34.7421 28.3039C34.2101 28.3039 33.7435 28.1919 33.3421 27.9679C32.9501 27.7346 32.6281 27.4219 32.3761 27.0299V28.1079H30.5841V17.9999H32.3761V22.1859C32.6281 21.7939 32.9501 21.4859 33.3421 21.2619C33.7435 21.0286 34.2101 20.9119 34.7421 20.9119C35.2181 20.9119 35.6521 21.0052 36.0441 21.1919C36.4455 21.3786 36.7861 21.6399 37.0661 21.9759C37.3555 22.3026 37.5795 22.6899 37.7381 23.1379C37.8968 23.5859 37.9761 24.0759 37.9761 24.6079C37.9761 25.1399 37.8968 25.6299 37.7381 26.0779C37.5795 26.5259 37.3555 26.9179 37.0661 27.2539C36.7861 27.5806 36.4455 27.8372 36.0441 28.0239C35.6521 28.2106 35.2181 28.3039 34.7421 28.3039ZM40.8185 23.8239H44.3465C44.2718 23.3946 44.0851 23.0539 43.7865 22.8019C43.4971 22.5499 43.1238 22.4239 42.6665 22.4239C42.1998 22.4239 41.8031 22.5499 41.4765 22.8019C41.1591 23.0539 40.9398 23.3946 40.8185 23.8239ZM42.7645 28.3039C42.2045 28.3039 41.6911 28.2152 41.2245 28.0379C40.7671 27.8512 40.3705 27.5946 40.0345 27.2679C39.6985 26.9412 39.4371 26.5492 39.2505 26.0919C39.0731 25.6346 38.9845 25.1352 38.9845 24.5939C38.9845 24.0432 39.0778 23.5439 39.2645 23.0959C39.4511 22.6386 39.7078 22.2512 40.0345 21.9339C40.3611 21.6072 40.7531 21.3552 41.2105 21.1779C41.6678 21.0006 42.1625 20.9119 42.6945 20.9119C43.2171 20.9119 43.6885 20.9959 44.1085 21.1639C44.5378 21.3319 44.9018 21.5699 45.2005 21.8779C45.5085 22.1859 45.7465 22.5546 45.9145 22.9839C46.0825 23.4039 46.1665 23.8706 46.1665 24.3839C46.1665 24.4866 46.1618 24.5986 46.1525 24.7199C46.1431 24.8412 46.1291 24.9719 46.1105 25.1119H40.7765C40.8791 25.6066 41.1031 26.0032 41.4485 26.3019C41.7938 26.5912 42.2371 26.7359 42.7785 26.7359C43.1705 26.7359 43.5205 26.6566 43.8285 26.4979C44.1365 26.3299 44.3838 26.0826 44.5705 25.7559L45.8445 26.7639C45.4898 27.2679 45.0511 27.6506 44.5285 27.9119C44.0151 28.1732 43.4271 28.3039 42.7645 28.3039ZM51.6539 21.0239V22.6479H51.2479C50.9493 22.6479 50.6786 22.6806 50.4359 22.7459C50.2026 22.8112 50.0019 22.9232 49.8339 23.0819C49.6659 23.2406 49.5353 23.4506 49.4419 23.7119C49.3486 23.9639 49.3019 24.2859 49.3019 24.6779V28.1079H47.5099V21.1079H49.3019V22.1579C49.6846 21.4019 50.3193 21.0239 51.2059 21.0239H51.6539ZM56.9176 21.0239V22.6479H56.5116C56.2129 22.6479 55.9423 22.6806 55.6996 22.7459C55.4663 22.8112 55.2656 22.9232 55.0976 23.0819C54.9296 23.2406 54.7989 23.4506 54.7056 23.7119C54.6123 23.9639 54.5656 24.2859 54.5656 24.6779V28.1079H52.7736V21.1079H54.5656V22.1579C54.9483 21.4019 55.5829 21.0239 56.4696 21.0239H56.9176ZM58.0373 21.1079H59.8293V28.1079H58.0373V21.1079ZM57.8693 18.8539C57.8693 18.5459 57.9719 18.2939 58.1773 18.0979C58.3919 17.8926 58.6486 17.7899 58.9473 17.7899C59.2459 17.7899 59.4933 17.8926 59.6893 18.0979C59.8946 18.2939 59.9973 18.5459 59.9973 18.8539C59.9973 19.1619 59.8946 19.4186 59.6893 19.6239C59.4933 19.8199 59.2459 19.9179 58.9473 19.9179C58.6486 19.9179 58.3919 19.8199 58.1773 19.6239C57.9719 19.4186 57.8693 19.1619 57.8693 18.8539ZM63.0079 23.8239H66.5359C66.4613 23.3946 66.2746 23.0539 65.9759 22.8019C65.6866 22.5499 65.3133 22.4239 64.8559 22.4239C64.3893 22.4239 63.9926 22.5499 63.6659 22.8019C63.3486 23.0539 63.1293 23.3946 63.0079 23.8239ZM64.9539 28.3039C64.3939 28.3039 63.8806 28.2152 63.4139 28.0379C62.9566 27.8512 62.5599 27.5946 62.2239 27.2679C61.8879 26.9412 61.6266 26.5492 61.4399 26.0919C61.2626 25.6346 61.1739 25.1352 61.1739 24.5939C61.1739 24.0432 61.2673 23.5439 61.4539 23.0959C61.6406 22.6386 61.8973 22.2512 62.2239 21.9339C62.5506 21.6072 62.9426 21.3552 63.3999 21.1779C63.8573 21.0006 64.3519 20.9119 64.8839 20.9119C65.4066 20.9119 65.8779 20.9959 66.2979 21.1639C66.7273 21.3319 67.0913 21.5699 67.3899 21.8779C67.6979 22.1859 67.9359 22.5546 68.1039 22.9839C68.2719 23.4039 68.3559 23.8706 68.3559 24.3839C68.3559 24.4866 68.3513 24.5986 68.3419 24.7199C68.3326 24.8412 68.3186 24.9719 68.2999 25.1119H62.9659C63.0686 25.6066 63.2926 26.0032 63.6379 26.3019C63.9833 26.5912 64.4266 26.7359 64.9679 26.7359C65.3599 26.7359 65.7099 26.6566 66.0179 26.4979C66.3259 26.3299 66.5733 26.0826 66.7599 25.7559L68.0339 26.7639C67.6793 27.2679 67.2406 27.6506 66.7179 27.9119C66.2046 28.1732 65.6166 28.3039 64.9539 28.3039ZM72.4854 28.3039C71.7294 28.3039 71.076 28.1499 70.5254 27.8419C69.984 27.5339 69.5594 27.0719 69.2514 26.4559L70.5674 25.6299C70.9687 26.4232 71.622 26.8199 72.5274 26.8199C72.9007 26.8199 73.1994 26.7592 73.4234 26.6379C73.6474 26.5072 73.7594 26.3346 73.7594 26.1199C73.7594 25.9146 73.6567 25.7559 73.4514 25.6439C73.246 25.5319 72.9894 25.4339 72.6814 25.3499C72.3734 25.2659 72.042 25.1819 71.6874 25.0979C71.3327 25.0139 71.0014 24.8926 70.6934 24.7339C70.3854 24.5752 70.1287 24.3699 69.9234 24.1179C69.718 23.8566 69.6154 23.5112 69.6154 23.0819C69.6154 22.4379 69.858 21.9152 70.3434 21.5139C70.838 21.1126 71.5334 20.9119 72.4294 20.9119C73.8294 20.9119 74.8187 21.4439 75.3974 22.5079L74.0674 23.3339C73.9087 23.0259 73.6847 22.7879 73.3954 22.6199C73.1154 22.4519 72.784 22.3679 72.4014 22.3679C72.0467 22.3679 71.7714 22.4332 71.5754 22.5639C71.3887 22.6946 71.2954 22.8439 71.2954 23.0119C71.2954 23.1986 71.398 23.3432 71.6034 23.4459C71.8087 23.5392 72.0654 23.6279 72.3734 23.7119C72.6907 23.7866 73.0314 23.8659 73.3954 23.9499C73.7594 24.0339 74.0954 24.1552 74.4034 24.3139C74.7207 24.4726 74.982 24.6872 75.1874 24.9579C75.3927 25.2192 75.4954 25.5646 75.4954 25.9939C75.4954 26.3392 75.4207 26.6566 75.2714 26.9459C75.1314 27.2259 74.9307 27.4686 74.6694 27.6739C74.408 27.8699 74.0907 28.0239 73.7174 28.1359C73.3534 28.2479 72.9427 28.3039 72.4854 28.3039Z" fill="#702A8A"/>
<path d="M97.0913 28.3319C96.3353 28.3319 95.6446 28.2059 95.0193 27.9539C94.3939 27.6926 93.8526 27.3332 93.3953 26.8759C92.9379 26.4186 92.5833 25.8772 92.3313 25.2519C92.0793 24.6266 91.9533 23.9452 91.9533 23.2079C91.9533 22.4706 92.0793 21.7892 92.3313 21.1639C92.5833 20.5386 92.9379 19.9972 93.3953 19.5399C93.8526 19.0826 94.3939 18.7279 95.0193 18.4759C95.6446 18.2146 96.3353 18.0839 97.0913 18.0839C97.8379 18.0839 98.5239 18.2146 99.1493 18.4759C99.7746 18.7279 100.311 19.0826 100.759 19.5399C101.217 19.9972 101.571 20.5386 101.823 21.1639C102.075 21.7892 102.201 22.4706 102.201 23.2079C102.201 23.9452 102.075 24.6266 101.823 25.2519C101.571 25.8772 101.217 26.4186 100.759 26.8759C100.311 27.3332 99.7746 27.6926 99.1493 27.9539C98.5239 28.2059 97.8379 28.3319 97.0913 28.3319ZM97.1193 26.4559C97.5673 26.4559 97.9733 26.3766 98.3373 26.2179C98.7106 26.0499 99.0326 25.8212 99.3033 25.5319C99.5739 25.2332 99.7839 24.8879 99.9333 24.4959C100.083 24.0946 100.157 23.6559 100.157 23.1799C100.157 22.7226 100.083 22.2979 99.9333 21.9059C99.7839 21.5139 99.5739 21.1732 99.3033 20.8839C99.0326 20.5946 98.7106 20.3706 98.3373 20.2119C97.9733 20.0439 97.5673 19.9599 97.1193 19.9599C96.6526 19.9599 96.2279 20.0439 95.8453 20.2119C95.4626 20.3706 95.1313 20.5946 94.8513 20.8839C94.5806 21.1732 94.3706 21.5139 94.2213 21.9059C94.0719 22.2979 93.9973 22.7226 93.9973 23.1799C93.9973 23.6559 94.0719 24.0946 94.2213 24.4959C94.3706 24.8879 94.5806 25.2332 94.8513 25.5319C95.1313 25.8212 95.4626 26.0499 95.8453 26.2179C96.2279 26.3766 96.6526 26.4559 97.1193 26.4559ZM103.435 26.4279L107.047 22.7319H103.603V21.1079H109.161V22.7879L105.549 26.4839H109.189V28.1079H103.435V26.4279ZM113.98 28.3039C113.439 28.3039 112.939 28.2106 112.482 28.0239C112.025 27.8372 111.628 27.5806 111.292 27.2539C110.965 26.9272 110.709 26.5399 110.522 26.0919C110.345 25.6346 110.256 25.1399 110.256 24.6079C110.256 24.0759 110.345 23.5859 110.522 23.1379C110.709 22.6806 110.965 22.2886 111.292 21.9619C111.628 21.6352 112.025 21.3786 112.482 21.1919C112.939 21.0052 113.439 20.9119 113.98 20.9119C114.531 20.9119 115.03 21.0052 115.478 21.1919C115.935 21.3786 116.327 21.6352 116.654 21.9619C116.99 22.2886 117.247 22.6806 117.424 23.1379C117.611 23.5859 117.704 24.0759 117.704 24.6079C117.704 25.1399 117.611 25.6346 117.424 26.0919C117.247 26.5399 116.99 26.9272 116.654 27.2539C116.327 27.5806 115.935 27.8372 115.478 28.0239C115.03 28.2106 114.531 28.3039 113.98 28.3039ZM113.98 26.6239C114.251 26.6239 114.498 26.5772 114.722 26.4839C114.955 26.3812 115.156 26.2412 115.324 26.0639C115.492 25.8772 115.623 25.6626 115.716 25.4199C115.809 25.1679 115.856 24.8972 115.856 24.6079C115.856 24.3092 115.809 24.0386 115.716 23.7959C115.623 23.5532 115.492 23.3432 115.324 23.1659C115.156 22.9792 114.955 22.8392 114.722 22.7459C114.498 22.6432 114.251 22.5919 113.98 22.5919C113.709 22.5919 113.457 22.6432 113.224 22.7459C113 22.8392 112.804 22.9792 112.636 23.1659C112.468 23.3432 112.337 23.5532 112.244 23.7959C112.151 24.0386 112.104 24.3092 112.104 24.6079C112.104 24.8972 112.151 25.1679 112.244 25.4199C112.337 25.6626 112.468 25.8772 112.636 26.0639C112.804 26.2412 113 26.3812 113.224 26.4839C113.457 26.5772 113.709 26.6239 113.98 26.6239ZM119.041 28.1079V21.1079H120.833V22.0319C121.272 21.2852 121.944 20.9119 122.849 20.9119C123.232 20.9119 123.582 20.9772 123.899 21.1079C124.217 21.2386 124.487 21.4252 124.711 21.6679C124.945 21.9106 125.122 22.1999 125.243 22.5359C125.374 22.8626 125.439 23.2312 125.439 23.6419V28.1079H123.647V24.1459C123.647 23.6512 123.535 23.2639 123.311 22.9839C123.097 22.7039 122.775 22.5639 122.345 22.5639C121.897 22.5639 121.533 22.7086 121.253 22.9979C120.973 23.2872 120.833 23.6699 120.833 24.1459V28.1079H119.041Z" fill="#1065FF"/>
</svg>
